<?xml version="1.0" standalone="no"?>
<!DOCTYPE svg PUBLIC "-//W3C//DTD SVG 20010904//EN"
 "http://www.w3.org/TR/2001/REC-SVG-20010904/DTD/svg10.dtd">
<svg version="1.0" xmlns="http://www.w3.org/2000/svg"
 width="200.000000pt" height="150.000000pt" viewBox="0 0 200.000000 150.000000"
 preserveAspectRatio="xMidYMid meet">
<metadata>
Created by potrace 1.10, written by Peter Selinger 2001-2011
</metadata>
<g transform="translate(0.000000,150.000000) scale(0.100000,-0.100000)"
fill="#000000" stroke="none">
<path d="M1009 1421 c-40 -41 -45 -68 -19 -96 12 -13 19 -29 15 -35 -4 -6 -2
-17 4 -24 17 -21 -3 -64 -56 -118 l-46 -47 -25 20 c-29 22 -109 26 -135 7 -9
-7 -18 -24 -21 -38 -2 -14 -7 -33 -11 -43 -4 -9 -2 -23 4 -31 6 -7 8 -16 5
-19 -4 -4 1 -18 10 -33 21 -31 16 -38 -27 -37 -32 0 -98 23 -237 83 -41 17
-85 34 -98 37 -34 8 -62 50 -62 94 0 47 -17 60 -41 30 -18 -22 -18 -22 -12 12
10 66 -47 127 -121 127 -32 0 -92 -52 -100 -86 -15 -59 39 -134 97 -134 19 0
24 -4 21 -17 -3 -13 11 -26 55 -51 33 -17 66 -32 75 -32 8 0 27 -11 43 -24 44
-36 334 -183 399 -201 33 -9 88 -34 124 -56 86 -50 126 -66 188 -75 28 -3 57
-13 63 -20 6 -8 16 -14 22 -14 6 0 31 -17 56 -38 53 -44 143 -102 158 -102 5
0 29 -14 53 -31 23 -17 57 -36 74 -41 17 -6 43 -22 57 -35 28 -26 212 -123
232 -123 19 0 91 -71 121 -117 14 -24 34 -43 43 -43 38 0 56 67 28 104 -8 11
-15 30 -15 42 0 13 -4 25 -10 29 -5 3 -7 12 -4 19 7 19 -34 46 -71 46 -44 0
-132 48 -183 101 -26 27 -59 51 -81 58 -44 13 -99 70 -180 185 -29 42 -56 75
-59 72 -2 -3 -14 0 -25 5 -11 6 -34 15 -51 20 l-31 8 24 -19 c12 -11 28 -17
35 -13 6 3 8 3 4 -2 -4 -4 -2 -15 4 -23 10 -11 9 -17 -6 -28 -10 -7 -22 -34
-27 -60 -5 -26 -11 -49 -13 -51 -2 -2 -18 4 -35 15 -17 10 -29 21 -26 24 3 3
-17 17 -43 31 -27 15 -51 25 -54 22 -2 -2 -2 10 0 28 2 18 4 55 4 83 l1 52 34
-1 c18 -1 33 -6 33 -11 0 -6 7 -2 15 8 8 11 15 15 15 9 0 -6 9 -9 19 -6 20 5
47 -28 34 -41 -3 -3 3 -6 14 -6 11 0 32 -10 47 -21 l27 -21 -2 82 c-2 82 -17
118 -42 103 -7 -3 -9 -3 -5 1 4 5 3 19 -2 32 -11 28 2 40 22 21 7 -8 20 -12
28 -10 8 2 5 -2 -7 -8 -22 -11 -22 -11 8 -36 29 -24 30 -25 49 -8 28 25 26 32
-21 75 -39 35 -46 38 -98 37 -39 -1 -64 4 -81 16 -13 9 -38 17 -55 17 -20 0
-26 -3 -17 -9 11 -7 11 -9 -2 -14 -31 -12 -11 -101 26 -112 10 -4 27 -3 38 0
25 8 25 0 1 -24 -16 -16 -21 -17 -32 -5 -8 8 -29 26 -46 40 -18 14 -33 34 -33
45 0 17 -19 23 -56 18 -4 0 -10 5 -14 11 -16 26 -17 -17 -1 -50 11 -25 33 -44
76 -67 85 -46 126 -43 136 10 3 15 12 10 45 -27 23 -26 38 -48 34 -51 -4 -3
-22 11 -39 30 -28 32 -31 34 -40 16 -11 -19 -71 -47 -71 -32 0 4 -15 15 -34
23 -33 16 -34 16 -34 -5 0 -26 -11 -77 -19 -90 -3 -6 -2 -7 4 -4 6 4 10 -8 11
-28 1 -19 -3 -37 -9 -41 -14 -8 -96 15 -110 32 -6 8 -16 14 -22 14 -19 0 7
-20 59 -46 43 -21 46 -23 22 -24 -16 0 -28 4 -28 9 0 5 -16 15 -35 21 -19 6
-64 31 -100 56 -37 24 -71 44 -75 44 -5 0 -14 9 -20 20 -6 11 -16 17 -26 13
-9 -3 -14 0 -12 8 2 7 -4 14 -12 15 -36 3 -40 5 -40 14 0 7 6 7 18 2 9 -5 28
-6 42 -3 29 8 18 17 -24 19 -17 1 -40 12 -53 24 -13 12 -26 19 -29 16 -3 -4 4
-12 16 -18 12 -6 19 -14 17 -17 -6 -5 -156 68 -217 105 -21 13 -43 19 -57 16
-23 -6 -29 2 -15 22 5 9 35 0 102 -28 52 -21 124 -50 160 -63 36 -13 66 -29
68 -35 2 -5 10 -10 18 -10 9 0 13 4 10 9 -3 5 4 12 17 16 27 9 27 9 57 0 21
-7 23 -5 13 6 -9 11 -3 22 29 52 22 22 37 34 34 28 -4 -6 -3 -11 1 -11 5 0 14
9 21 21 8 12 9 18 3 15 -5 -4 -13 -1 -17 5 -4 7 -3 10 2 7 5 -3 18 -2 29 3 18
7 18 8 -5 8 -23 1 -54 -12 -50 -20 3 -8 -20 -59 -26 -59 -3 0 -3 7 0 16 3 9 2
12 -5 9 -5 -4 -25 -8 -44 -9 -28 -3 -34 1 -38 20 -2 13 1 25 7 28 7 3 7 5 -1
5 -7 1 -10 7 -7 15 3 8 13 12 23 9 21 -5 36 23 19 33 -6 4 -8 3 -4 -4 9 -15
-13 -27 -26 -14 -7 7 -2 16 15 27 29 19 64 16 59 -5 -2 -7 0 -20 3 -28 4 -11
8 -12 20 -2 11 10 24 9 60 -4 31 -10 53 -12 68 -6 18 7 15 9 -20 9 -50 1 -54
12 -14 40 16 12 52 43 79 69 44 43 48 50 34 61 -14 10 -13 11 11 6 32 -7 67 2
67 16 0 5 -8 9 -17 10 -15 0 -15 2 2 9 17 8 16 9 -9 9 l-28 1 23 18 c14 12 20
25 16 35 -9 25 -26 21 -19 -5 3 -13 1 -19 -5 -15 -6 4 -19 -9 -29 -28 -23 -43
-49 -48 -41 -7 4 21 1 31 -14 40 -10 7 -19 19 -19 28 0 8 5 12 11 8 8 -4 9 1
4 17 -7 21 -6 22 9 10 14 -12 16 -11 14 9 -2 13 3 25 10 27 8 3 10 -1 6 -12
-5 -11 -2 -15 7 -13 8 1 23 -5 34 -15 11 -10 31 -27 45 -37 25 -19 25 -19 5
-34 -18 -14 -18 -15 -1 -10 10 4 21 2 26 -5 9 -16 -33 -63 -75 -84 -39 -20
-99 -81 -70 -72 20 7 20 6 0 -6 -11 -7 -24 -18 -28 -26 -4 -7 -17 -13 -27 -13
-10 0 -21 -4 -24 -8 -7 -11 25 -9 44 3 33 21 110 13 110 -12 0 -11 -7 -14 -25
-9 -14 3 -37 9 -51 12 -19 5 -25 4 -20 -5 4 -6 12 -11 18 -11 6 0 20 -7 30
-17 13 -12 18 -13 18 -3 0 7 3 10 6 7 4 -4 1 -13 -6 -22 -10 -12 -10 -15 1
-15 22 0 42 17 35 29 -4 6 3 32 14 58 12 27 28 68 37 93 8 25 21 52 28 60 19
23 -15 94 -54 115 -17 8 -31 19 -31 23 0 11 -39 52 -48 52 -4 -1 -19 -13 -33
-29z m-801 -145 c14 -9 3 -44 -19 -59 -18 -13 -17 -14 1 -30 19 -16 20 -16 20
2 0 26 10 51 21 51 12 0 11 -87 -1 -95 -5 -3 -10 -1 -10 4 0 18 -14 12 -29
-10 -11 -19 -11 -21 4 -16 9 4 14 3 11 -1 -3 -4 4 -13 15 -20 11 -7 19 -8 19
-2 0 5 -4 10 -10 10 -5 0 -10 5 -10 11 0 5 4 8 9 5 5 -4 12 0 15 6 5 10 7 10
12 1 10 -22 24 -14 24 12 0 14 5 25 11 25 6 0 10 -15 9 -32 -3 -59 0 -68 25
-80 15 -7 24 -17 20 -25 -3 -7 -8 -20 -11 -28 -4 -9 -3 -15 2 -14 22 4 35 -2
28 -12 -4 -8 0 -9 15 -4 23 7 237 -91 261 -120 18 -21 11 -19 -51 15 -30 16
-60 30 -67 30 -7 0 -25 9 -40 20 -15 10 -49 24 -76 30 -27 6 -62 22 -78 35
-16 14 -36 25 -45 25 -8 0 -38 12 -67 27 -64 34 -61 32 -52 40 3 4 12 1 18 -5
7 -7 16 -12 21 -12 4 0 -3 11 -17 23 -14 13 -23 26 -20 29 2 3 -7 6 -20 6 -14
0 -23 -4 -20 -9 10 -16 -13 -9 -39 11 -32 25 -44 79 -27 120 7 17 17 33 23 37
5 3 7 1 4 -4 -5 -9 12 -23 27 -23 9 0 1 30 -8 31 -6 0 -2 4 9 8 19 8 72 0 93
-13z m930 -58 c-8 -22 -63 -57 -77 -49 -10 7 -4 15 25 34 43 29 58 33 52 15z
m-20 -60 c-5 -14 -97 -52 -106 -44 -4 5 84 53 101 55 5 1 7 -5 5 -11z m77
-171 c11 -2 35 -23 35 -31 0 -3 -7 -2 -17 1 -9 4 -14 2 -10 -3 4 -6 -6 -9 -24
-6 -33 5 -43 16 -35 39 4 10 12 13 24 8 9 -3 21 -7 27 -8z m69 -2 c-4 -8 -1
-22 6 -30 14 -17 8 -31 -9 -20 -12 7 -15 48 -4 58 10 11 13 8 7 -8z m-663
-136 c34 -17 59 -33 56 -35 -5 -6 -127 53 -127 61 0 9 10 5 71 -26z m94 -25
c14 -9 22 -21 18 -27 -3 -6 -1 -7 5 -3 6 4 24 0 39 -8 17 -9 22 -15 12 -16
-32 0 -78 22 -94 46 -18 28 -14 30 20 8z m660 -188 c19 -4 46 -19 59 -34 14
-15 46 -51 73 -81 26 -29 58 -57 70 -62 20 -7 21 -11 12 -39 -6 -16 -14 -32
-18 -34 -4 -3 -36 11 -71 31 -61 35 -63 37 -39 47 23 10 23 10 -11 14 -23 2
-44 14 -62 33 -38 41 -59 39 -48 -3 9 -30 8 -31 -5 -14 -11 14 -13 34 -9 71 4
30 2 60 -4 72 -13 23 -3 42 10 19 4 -7 23 -17 43 -20z m255 -255 c-11 -23 -24
-41 -29 -41 -14 0 -33 28 -26 40 9 15 27 1 21 -17 -13 -32 12 -1 29 38 11 23
21 37 23 31 2 -6 -6 -29 -18 -51z m63 -37 c9 -4 17 -10 17 -15 0 -5 7 -5 17
-2 11 4 14 3 9 -5 -4 -7 -2 -12 4 -12 6 0 9 -4 6 -9 -8 -12 -46 -2 -46 12 0 6
-3 7 -7 4 -7 -8 -43 21 -43 35 0 5 6 7 13 4 6 -3 20 -9 30 -12z m123 -49 c-3
-8 -2 -14 2 -14 14 2 52 -14 52 -21 0 -5 -10 -6 -22 -2 -12 3 -19 1 -15 -4 3
-6 1 -16 -4 -24 -8 -11 -9 -8 -6 13 2 15 0 27 -4 27 -5 0 -9 -6 -9 -12 0 -9
-3 -9 -9 1 -6 9 -6 22 0 33 12 22 23 24 15 3z m75 -58 c-11 -12 -24 -18 -27
-14 -10 10 27 48 38 41 6 -4 1 -16 -11 -27z m29 -14 c0 -10 -32 -43 -42 -43
-14 0 -9 22 10 36 19 15 32 18 32 7z"/>
<path d="M110 1211 c0 -21 -6 -32 -20 -36 -23 -7 -25 -16 -8 -33 16 -16 31
-15 25 1 -6 18 11 47 35 56 19 7 19 8 -6 24 l-26 17 0 -29z"/>
<path d="M295 1040 c-8 -12 20 -24 35 -15 6 3 8 11 5 16 -8 12 -32 12 -40 -1z"/>
<path d="M805 940 c-3 -5 0 -10 7 -10 8 0 26 -14 41 -31 15 -18 30 -29 33 -26
5 5 -61 77 -71 77 -2 0 -7 -4 -10 -10z"/>
<path d="M840 875 c0 -16 32 -35 70 -44 60 -13 119 7 120 42 0 5 -11 0 -25
-11 -20 -16 -32 -18 -74 -11 -27 4 -59 13 -70 19 -12 6 -21 8 -21 5z"/>
<path d="M824 852 c6 -9 1 -11 -18 -8 -14 3 -26 1 -26 -4 0 -11 112 -110 125
-110 6 0 -17 25 -50 55 l-60 54 78 -39 c79 -40 129 -49 157 -29 11 8 4 9 -27
6 -24 -3 -43 -2 -43 3 0 8 32 21 63 25 10 1 24 8 30 15 10 10 8 12 -5 7 -10
-4 -18 -2 -18 3 0 6 5 10 12 10 6 0 9 2 6 5 -3 4 -23 -5 -43 -20 -40 -27 -60
-31 -70 -15 -3 6 -12 10 -18 10 -7 -1 -1 -10 12 -20 13 -11 19 -20 15 -20 -13
0 -75 39 -103 64 -13 11 -21 15 -17 8z"/>
</g>
</svg>
