<?xml version="1.0" standalone="no"?>
<!DOCTYPE svg PUBLIC "-//W3C//DTD SVG 20010904//EN"
 "http://www.w3.org/TR/2001/REC-SVG-20010904/DTD/svg10.dtd">
<svg version="1.0" xmlns="http://www.w3.org/2000/svg"
 width="159.000000pt" height="228.000000pt" viewBox="0 0 159.000000 228.000000"
 preserveAspectRatio="xMidYMid meet">
<metadata>
Created by potrace 1.10, written by Peter Selinger 2001-2011
</metadata>
<g transform="translate(0.000000,228.000000) scale(0.100000,-0.100000)"
fill="#61901a" stroke="none">
<path d="M501 2226 l-114 -11 2 -86 2 -86 -35 -26 c-21 -17 -48 -27 -68 -27
-18 0 -38 -4 -44 -8 -6 -4 -41 -91 -78 -195 l-68 -187 1 -150 c1 -83 4 -157 7
-165 4 -9 1 -21 -5 -29 -9 -11 -6 -15 16 -20 16 -4 60 -23 100 -42 l71 -36 7
-49 7 -49 43 0 c52 0 55 -6 55 -104 0 -52 -5 -83 -20 -111 -11 -22 -20 -47
-20 -56 0 -9 -9 -24 -21 -35 -21 -19 -21 -21 -14 -364 4 -190 11 -355 16 -368
8 -21 13 -22 76 -18 38 2 175 4 307 5 l239 1 -5 115 -4 115 82 0 82 0 65 97
c201 304 280 422 302 452 33 45 33 99 0 139 -14 17 -25 39 -25 49 0 37 -33
118 -60 148 -24 26 -29 42 -35 113 -5 64 -3 85 8 96 8 8 42 96 77 196 47 136
60 184 51 193 -6 6 -11 17 -11 24 0 7 -28 49 -62 93 l-63 80 -55 0 -55 0 -18
51 c-14 38 -25 53 -46 60 -21 7 -31 21 -40 49 -11 38 -14 40 -50 40 -73 0
-133 12 -139 29 -9 25 -23 31 -73 31 -29 0 -51 6 -59 15 -7 8 -22 14 -34 13
-11 0 -38 7 -58 16 -42 18 -72 18 -237 2z m74 -16 c-4 -6 24 -9 74 -7 72 2 82
0 105 -22 20 -19 28 -22 40 -12 11 10 16 9 23 -3 5 -10 27 -16 63 -18 47 -3
55 -6 58 -24 4 -25 35 -34 122 -34 l58 0 14 -42 c9 -31 19 -44 38 -48 18 -4
27 -16 35 -47 16 -62 29 -73 94 -74 l56 0 58 -80 c57 -79 68 -116 47 -149 -5
-8 -5 -17 0 -20 5 -3 -7 -37 -26 -75 -19 -39 -43 -99 -54 -134 -11 -36 -26
-71 -32 -79 -8 -9 -11 -47 -10 -105 2 -89 3 -93 32 -118 32 -27 60 -100 60
-156 0 -22 6 -36 20 -43 16 -9 20 -21 20 -61 0 -43 -5 -55 -38 -92 -22 -23
-99 -134 -172 -247 -73 -113 -141 -215 -149 -227 -14 -20 -25 -22 -103 -23
l-88 0 0 -45 c0 -41 -2 -45 -24 -45 -37 0 -56 -10 -56 -31 0 -10 4 -19 9 -19
4 0 8 -13 7 -30 -1 -21 -6 -30 -18 -30 -10 0 -18 -4 -18 -10 0 -14 77 -13 86
1 4 7 -1 16 -10 21 -14 8 -15 13 -5 24 9 11 9 17 -1 29 -8 9 -8 15 -2 15 6 0
16 2 24 5 10 4 14 -10 15 -55 2 -33 2 -60 0 -60 -1 0 -99 -3 -217 -5 -118 -3
-243 -7 -277 -9 l-61 -5 -6 92 c-3 51 -7 210 -9 354 -4 258 -3 262 18 273 11
6 21 19 22 28 1 9 9 37 18 62 12 32 17 77 18 153 0 59 4 107 8 107 11 0 20
-31 14 -51 -5 -16 -1 -17 28 -12 19 3 37 1 41 -5 3 -5 -12 -12 -34 -16 -41 -6
-52 -19 -24 -30 9 -3 48 -5 87 -4 l72 2 -75 6 c-82 6 -77 14 15 26 l60 8 -45
7 c-36 5 -39 6 -14 7 33 2 60 24 50 41 -3 5 -1 11 6 13 7 3 -16 5 -50 6 -34 1
-72 -2 -86 -8 -18 -6 -26 -5 -30 5 -4 10 -19 12 -65 8 -61 -5 -68 -2 -55 31 7
19 54 22 55 4 0 -10 2 -10 6 0 7 18 53 15 53 -3 0 -8 5 -15 10 -15 6 0 10 9
10 20 0 18 -7 20 -70 20 -49 0 -70 -4 -70 -12 0 -7 -7 1 -16 18 -20 42 -143
107 -182 97 -24 -6 -26 -5 -13 10 10 12 13 50 12 147 l-2 131 26 -17 c14 -9
28 -14 32 -10 3 3 1 6 -5 6 -7 0 -12 7 -12 15 0 8 7 15 16 15 8 0 13 4 10 8
-3 5 -19 7 -36 4 -27 -4 -30 -2 -30 21 0 26 0 26 35 11 41 -17 45 -17 45 -4 0
6 -7 10 -15 10 -8 0 -15 4 -15 10 0 5 -6 7 -14 4 -26 -10 -28 17 -5 87 15 45
27 68 35 65 7 -3 14 0 16 6 4 12 48 2 48 -12 0 -4 -9 -10 -20 -13 -11 -3 -18
-1 -14 4 6 11 2 11 -20 3 -13 -5 -14 -9 -5 -20 13 -15 64 -20 54 -5 -3 6 3 15
12 20 17 10 16 12 -6 32 -14 11 -33 18 -43 15 -11 -2 -18 -1 -16 3 2 3 16 41
32 84 l29 77 42 0 c37 0 47 5 80 41 36 41 37 43 33 110 l-4 69 31 1 c30 1 88
16 70 18 -5 1 -3 6 5 11 20 13 63 13 55 0z m-30 -1139 c-14 -14 -73 -26 -60
-13 6 5 19 12 30 15 34 8 40 8 30 -2z m55 -10 c0 -12 -26 -21 -58 -20 -26 0
-25 1 8 14 43 17 50 17 50 6z"/>
<path d="M523 2182 c-22 -16 -23 -23 -21 -145 1 -124 2 -128 22 -125 19 3 21
10 22 86 l2 83 33 17 c47 24 52 65 10 86 -37 20 -41 20 -68 -2z m42 -42 c0 -7
-6 -15 -12 -17 -8 -3 -13 4 -13 17 0 13 5 20 13 18 6 -3 12 -11 12 -18z"/>
<path d="M654 2053 c8 -128 14 -152 36 -138 9 5 11 30 8 81 -3 41 -2 74 2 74
3 0 14 6 25 13 17 13 17 14 -3 12 -11 0 -27 -7 -36 -14 -14 -12 -16 -10 -16 8
0 12 5 19 10 16 6 -4 10 5 10 19 0 14 -5 26 -11 26 -6 0 -9 -7 -5 -15 3 -8 1
-15 -4 -15 -16 0 -11 37 5 44 8 3 15 1 15 -5 0 -6 5 -7 10 -4 6 3 10 -1 10
-11 0 -13 3 -14 14 -5 19 16 26 -6 26 -83 0 -67 4 -78 26 -69 20 8 14 143 -7
143 -4 0 -20 11 -35 25 -16 15 -39 25 -57 25 l-30 0 7 -127z"/>
<path d="M847 2116 c-14 -13 -27 -20 -29 -15 -2 5 -3 -20 -3 -55 0 -75 5 -77
16 -4 6 36 15 58 31 70 13 9 20 19 17 22 -3 4 -18 -5 -32 -18z"/>
<path d="M893 2065 c0 -33 2 -45 4 -27 2 18 2 45 0 60 -2 15 -4 0 -4 -33z"/>
<path d="M917 2076 c-4 -27 -6 -67 -6 -90 1 -31 4 -25 11 29 10 81 6 135 -5
61z"/>
<path d="M435 2093 c-4 -10 -10 -69 -12 -131 -6 -109 -7 -114 -32 -130 -29
-18 -41 -32 -41 -47 0 -6 3 -6 8 0 4 6 20 19 35 28 l28 18 -3 -28 c-1 -15 1
-74 6 -130 6 -78 11 -103 22 -103 23 0 45 59 51 136 6 71 7 73 29 68 20 -5 24
0 37 43 l15 48 -2 -45 c-1 -56 21 -61 46 -10 l17 35 1 -32 c0 -40 20 -44 21
-5 0 15 3 21 6 15 9 -24 69 -46 91 -34 30 16 64 93 60 138 -3 38 -3 38 -47 38
-31 0 -46 -5 -49 -15 -4 -13 -3 -13 11 -2 9 8 26 12 39 10 17 -2 24 -10 26
-33 3 -38 -37 -119 -62 -124 -15 -2 -17 1 -11 15 4 11 10 30 13 42 4 19 1 23
-14 20 -13 -2 -21 -15 -25 -38 l-6 -35 -8 33 c-5 22 -12 31 -21 28 -7 -3 -16
-1 -19 4 -12 20 -23 9 -34 -35 -14 -57 -24 -58 -19 -2 3 37 0 42 -19 45 -20 3
-23 -1 -23 -30 0 -35 -15 -67 -26 -56 -3 4 -2 20 4 36 6 17 6 35 1 43 -14 23
-32 -5 -31 -48 1 -36 1 -36 -14 -15 -8 12 -22 22 -30 22 -19 0 -18 6 9 59 17
37 22 63 22 131 0 79 -1 85 -21 88 -13 2 -24 -4 -29 -15z m42 -77 c-3 -28 -12
-67 -21 -86 -16 -35 -16 -34 -12 56 4 99 12 128 29 99 5 -10 7 -41 4 -69z m-6
-223 c7 -20 6 -28 -3 -35 -23 -14 -28 -9 -28 27 0 41 16 46 31 8z m-2 -155
l-12 -43 -8 30 c-3 17 -7 49 -8 72 -1 32 3 42 17 45 22 4 28 -44 11 -104z"/>
<path d="M1070 2059 c-20 -17 -24 -29 -22 -65 5 -112 61 -114 62 -2 0 20 -4
40 -10 43 -6 4 -10 -10 -10 -34 0 -22 -4 -43 -10 -46 -6 -4 -10 13 -10 43 0
41 3 51 20 55 11 3 20 10 20 16 0 16 -12 13 -40 -10z"/>
<path d="M987 2063 c-14 -22 -16 -80 -4 -103 14 -27 52 -34 52 -10 0 8 -8 14
-17 14 -14 -1 -18 6 -18 37 0 29 4 39 16 39 9 0 14 6 12 13 -5 14 -34 22 -41
10z"/>
<path d="M597 2044 c-4 -4 -7 -38 -7 -76 0 -61 2 -69 18 -66 14 3 17 14 14 68
-2 62 -11 88 -25 74z"/>
<path d="M859 2001 c12 -8 12 -13 -3 -35 -9 -14 -12 -26 -7 -26 12 0 31 33 31
54 0 9 -8 16 -17 16 -15 0 -15 -2 -4 -9z"/>
<path d="M1128 1940 c2 -16 6 -30 8 -30 2 0 4 14 4 30 0 17 -4 30 -8 30 -5 0
-7 -13 -4 -30z"/>
<path d="M891 1953 c-1 -6 3 -23 8 -37 7 -17 7 -26 -1 -28 -7 -3 -8 -15 -4
-33 6 -23 9 -26 17 -14 7 12 9 12 9 -1 0 -12 2 -12 9 -2 4 8 12 13 17 12 5 0
10 7 11 17 2 15 1 15 -6 -2 -5 -11 -10 -15 -10 -8 -1 6 -10 9 -22 6 -16 -4
-20 -2 -17 8 3 8 13 14 24 14 11 0 20 8 22 20 4 20 4 20 -11 0 -16 -20 -16
-20 -22 0 -13 38 -24 60 -24 48z"/>
<path d="M737 1925 c-13 -18 -14 -25 -5 -25 7 0 21 12 31 25 13 18 14 25 5 25
-7 0 -21 -12 -31 -25z"/>
<path d="M1160 1935 c0 -3 9 -23 20 -45 21 -42 26 -70 11 -70 -10 0 -57 52
-64 72 -2 7 -8 10 -12 6 -10 -9 32 -76 57 -89 14 -7 23 -7 34 2 11 9 14 8 14
-5 0 -20 26 -21 34 -1 3 8 1 15 -4 15 -6 0 -10 7 -10 15 0 8 7 15 16 15 8 0
12 5 9 10 -4 7 -13 6 -26 -1 -24 -12 -22 -15 -40 35 -8 22 -20 41 -27 44 -6 2
-12 1 -12 -3z"/>
<path d="M357 1923 c-11 -11 -8 -83 4 -83 5 0 7 5 3 12 -4 6 1 17 11 25 18 12
18 13 1 13 -10 0 -16 5 -13 13 2 6 10 11 16 10 6 -2 11 2 11 7 0 11 -23 14
-33 3z"/>
<path d="M270 1888 c0 -33 14 -67 24 -58 8 9 -6 90 -15 90 -5 0 -9 -15 -9 -32z"/>
<path d="M966 1911 c-3 -5 0 -22 7 -39 l12 -29 17 22 c15 20 16 25 3 35 -13
10 -15 8 -15 -11 -1 -21 -2 -22 -11 -6 -5 9 -7 22 -4 27 3 6 4 10 1 10 -3 0
-7 -4 -10 -9z"/>
<path d="M845 1890 c-15 -16 -15 -22 -5 -35 11 -14 7 -19 -12 -16 -12 2 -10
-17 2 -24 6 -3 10 -1 10 5 0 6 5 8 10 5 6 -3 10 -13 10 -21 0 -8 -4 -13 -9 -9
-6 3 -14 -2 -19 -11 -11 -19 -32 -10 -32 13 0 9 -3 14 -6 10 -10 -9 6 -47 21
-47 7 0 15 -7 19 -15 4 -13 2 -14 -14 -5 -21 11 -60 -2 -60 -20 0 -23 44 -140
52 -140 6 0 8 6 5 14 -3 8 -8 30 -12 48 -4 27 -1 36 18 49 23 17 24 16 47 -27
18 -34 28 -44 44 -42 15 2 21 10 19 28 -2 32 -42 125 -50 117 -3 -4 4 -29 16
-56 23 -54 26 -71 12 -71 -5 0 -21 26 -37 58 -16 31 -32 59 -36 62 -11 8 5 25
27 28 23 4 45 22 27 22 -7 0 -12 9 -12 20 0 11 -5 20 -11 20 -7 0 -9 11 -5 30
7 35 5 36 -19 10z m-25 -174 c0 -14 -29 -31 -38 -22 -2 3 -2 12 1 21 8 19 37
20 37 1z"/>
<path d="M1051 1873 c0 -10 14 -45 30 -78 16 -34 27 -48 24 -32 -6 33 -3 33
34 6 16 -12 35 -19 42 -17 7 2 -8 17 -33 33 -40 25 -45 32 -44 64 1 32 -2 36
-26 39 -22 3 -28 -1 -27 -15z m39 -20 c0 -22 -2 -25 -10 -13 -13 20 -13 40 0
40 6 0 10 -12 10 -27z"/>
<path d="M1269 1823 c-12 -29 -16 -49 -10 -53 6 -3 3 -17 -9 -34 -10 -16 -16
-35 -13 -42 9 -24 23 -15 23 14 0 19 3 23 9 13 5 -7 14 -10 21 -6 8 5 11 2 7
-11 -15 -51 -18 -102 -7 -109 17 -10 31 15 26 44 -2 14 2 31 10 38 8 8 14 10
14 4 0 -5 -5 -13 -11 -17 -8 -4 -7 -9 2 -15 23 -15 31 -10 24 14 -6 18 -5 20
6 10 21 -21 28 -15 24 21 -2 29 0 33 17 28 15 -3 19 -1 16 9 -9 27 -42 16 -49
-16 l-7 -30 -1 33 c-1 40 -15 41 -31 2 -17 -40 -26 -30 -11 11 13 38 5 52 -15
25 -20 -28 -28 -13 -13 28 12 33 13 34 23 14 16 -31 34 -33 42 -4 8 32 -3 49
-26 43 -12 -3 -17 0 -14 8 3 7 -2 15 -11 19 -12 4 -21 -6 -36 -41z"/>
<path d="M1030 1810 c11 -21 20 -44 20 -50 0 -22 -21 -8 -42 30 -27 48 -46 54
-22 8 23 -46 44 -68 66 -68 11 0 18 7 18 18 -1 26 -37 102 -50 102 -6 0 -2
-17 10 -40z"/>
<path d="M928 1799 c-24 -14 -23 -23 14 -106 31 -72 62 -106 34 -38 -16 38
-12 44 15 19 10 -9 26 -14 36 -12 13 3 7 10 -24 28 -44 24 -51 34 -33 45 14 9
13 48 -2 63 -14 14 -18 14 -40 1z m32 -33 c0 -14 -4 -27 -9 -31 -12 -7 -25 31
-16 45 11 18 25 10 25 -14z"/>
<path d="M610 1740 c-11 -11 -19 -30 -19 -42 l2 -23 4 23 c6 31 50 59 72 45 9
-6 15 -19 13 -29 -2 -15 -1 -16 7 -5 14 22 25 -68 18 -152 -4 -49 -15 -87 -36
-128 -26 -52 -28 -59 -15 -76 15 -17 15 -17 6 2 -8 14 -6 26 7 45 86 124 76
360 -16 360 -12 0 -32 -9 -43 -20z"/>
<path d="M511 1703 c0 -15 -2 -40 -5 -55 -4 -16 -2 -28 3 -28 17 0 24 22 10
31 -11 7 -9 9 6 9 15 0 17 2 6 9 -11 7 -9 12 10 22 20 10 22 10 13 -2 -7 -8
-10 -29 -8 -46 4 -33 -1 -37 -37 -34 -12 1 -14 -6 -11 -34 6 -47 15 -50 52
-16 21 19 28 31 20 36 -7 4 -9 20 -5 44 14 82 13 86 -23 89 -30 3 -32 1 -31
-25z m48 -116 c-2 -1 -12 -9 -21 -16 -15 -12 -18 -11 -18 3 0 10 8 16 22 16
12 0 19 -1 17 -3z"/>
<path d="M1115 1723 c-44 -11 -48 -23 -41 -114 5 -68 4 -88 -7 -92 -7 -3 -28
-33 -46 -67 -35 -66 -51 -67 -51 -3 0 17 -3 38 -6 47 -7 19 -44 21 -68 3 -16
-12 -14 -13 18 -9 33 4 36 2 36 -22 0 -30 26 -86 39 -86 5 0 24 26 41 57 18
31 38 63 46 71 10 9 14 40 14 102 0 78 2 88 19 93 15 3 21 -1 24 -17 3 -14 5
-10 6 12 0 17 0 31 -1 31 -2 -1 -12 -4 -23 -6z"/>
<path d="M1164 1719 c-3 -6 -1 -16 6 -22 9 -9 11 -8 8 3 -2 10 4 15 20 14 12
0 22 3 22 8 0 12 -48 10 -56 -3z"/>
<path d="M203 1705 c27 -15 36 -35 17 -35 -5 0 -10 5 -10 11 0 5 -5 7 -11 3
-6 -3 -15 0 -20 7 -7 11 -9 10 -9 -3 0 -10 10 -20 25 -24 14 -3 22 -11 19 -16
-3 -5 -16 -7 -29 -4 -14 4 -25 1 -28 -7 -3 -9 5 -13 28 -14 30 -1 35 3 48 36
17 41 14 47 -28 56 l-30 6 28 -16z"/>
<path d="M297 1702 c-30 -20 -56 -51 -57 -67 0 -5 11 4 24 20 26 33 44 30 26
-5 -6 -11 -9 -26 -6 -33 3 -9 5 -9 5 0 1 13 41 5 41 -8 0 -20 31 -7 42 17 10
21 9 31 -4 55 -16 28 -16 28 8 19 13 -5 24 -6 24 -1 0 25 -66 27 -103 3z m61
-37 c7 -14 12 -27 12 -28 0 -2 -16 -4 -35 -5 -19 -2 -35 0 -35 2 0 16 25 56
35 56 6 0 17 -11 23 -25z"/>
<path d="M648 1627 c2 -52 -1 -111 -7 -132 -7 -27 -7 -35 0 -28 17 17 33 152
25 206 -12 78 -21 53 -18 -46z"/>
<path d="M1408 1696 c-13 -29 -5 -56 17 -56 18 0 37 43 29 65 -9 23 -33 18
-46 -9z"/>
<path d="M615 1618 c-3 -40 -2 -86 3 -103 7 -23 10 -6 11 73 0 56 -1 102 -3
102 -3 0 -7 -33 -11 -72z"/>
<path d="M1163 1664 c-3 -9 0 -20 7 -24 9 -6 9 -9 0 -15 -8 -5 -7 -12 5 -25
13 -14 13 -19 3 -23 -7 -3 -3 -6 9 -6 12 -1 28 -4 37 -7 12 -4 16 0 16 16 0
16 -4 20 -15 16 -21 -8 -45 3 -45 20 0 8 7 14 15 14 8 0 15 -7 15 -16 0 -8 5
-12 10 -9 8 5 7 11 -1 21 -8 10 -8 14 0 14 17 0 13 27 -5 34 -27 10 -44 7 -51
-10z"/>
<path d="M1133 1600 c0 -25 2 -35 4 -22 2 12 2 32 0 45 -2 12 -4 2 -4 -23z"/>
<path d="M1400 1595 c-5 -14 -17 -40 -25 -58 -15 -30 -15 -31 0 -12 27 33 56
95 45 95 -6 0 -15 -11 -20 -25z"/>
<path d="M942 1580 c-24 -23 -36 -26 -27 -7 4 6 -1 3 -10 -8 -17 -20 -17 -20
-11 5 7 24 6 24 -8 6 -22 -27 -13 -34 40 -34 25 0 48 -3 52 -6 3 -3 14 2 25
11 11 10 17 12 13 6 -14 -24 12 -13 28 12 17 25 17 26 -10 21 -15 -3 -34 0
-41 6 -12 9 -13 7 -8 -15 7 -28 -7 -38 -21 -15 -4 7 -3 8 4 4 14 -8 15 3 4 22
-6 9 -13 7 -30 -8z"/>
<path d="M290 1579 c0 -6 9 -8 21 -4 16 5 19 4 14 -6 -6 -9 -4 -11 7 -6 19 7
38 -11 38 -35 0 -15 -9 -18 -47 -19 -27 -1 -37 -3 -23 -6 63 -10 74 -14 59
-24 -12 -7 -11 -9 4 -9 12 0 17 8 17 29 0 16 3 43 6 60 l7 31 -52 0 c-29 0
-51 -4 -51 -11z"/>
<path d="M820 1560 l-22 -31 27 7 c25 6 26 5 16 -14 -15 -29 -14 -52 4 -52 10
0 15 11 16 33 0 17 2 44 4 60 5 37 -18 35 -45 -3z"/>
<path d="M261 1575 c-11 -50 -11 -59 0 -48 6 6 9 21 6 34 -2 13 -5 20 -6 14z"/>
<path d="M1250 1555 c-22 -24 -25 -24 -32 -8 -5 14 -6 13 -5 -7 0 -14 -12 -45
-27 -70 -26 -43 -26 -44 -3 -18 14 15 28 24 33 20 4 -4 4 -1 0 6 -11 18 41 84
63 80 21 -3 29 16 9 20 -8 1 -25 -9 -38 -23z"/>
<path d="M201 1520 c-6 -28 -11 -61 -11 -74 0 -13 -9 -49 -20 -81 -27 -79 -19
-80 13 -3 16 40 27 89 30 136 2 39 3 72 1 72 -1 0 -7 -23 -13 -50z"/>
<path d="M580 1535 c-3 -50 -1 -103 6 -135 3 -17 -4 -34 -21 -55 -22 -25 -29
-28 -45 -17 -27 16 -35 15 -20 -3 16 -20 84 -20 100 0 11 14 15 14 29 1 24
-21 54 -24 80 -7 11 7 12 13 4 23 -9 10 -7 27 7 68 10 30 22 55 27 55 4 0 11
-22 15 -48 10 -72 18 -69 18 6 0 51 -3 67 -14 67 -27 0 -46 -12 -46 -30 0 -10
-9 -39 -20 -65 -22 -52 -23 -56 -12 -52 4 1 8 -2 10 -8 5 -17 -29 -18 -48 0
-12 11 -26 14 -45 9 l-27 -7 17 26 c9 14 14 31 10 37 -3 6 -10 47 -14 93 -5
53 -9 68 -11 42z"/>
<path d="M297 1554 c-14 -14 -7 -26 8 -14 10 9 15 9 15 1 0 -6 7 -11 15 -11 8
0 15 5 15 10 0 6 -4 10 -9 10 -5 0 -16 2 -23 5 -8 3 -17 2 -21 -1z"/>
<path d="M745 1546 c-11 -8 -14 -16 -8 -19 6 -4 18 0 28 7 11 8 14 16 8 19 -6
4 -18 0 -28 -7z"/>
<path d="M1167 1553 c-11 -10 -8 -33 4 -33 6 0 9 7 5 15 -3 8 -1 15 4 15 5 0
11 -8 13 -17 4 -14 5 -12 6 5 1 21 -18 30 -32 15z"/>
<path d="M1304 1548 c-32 -17 -44 -39 -37 -67 6 -23 5 -25 -10 -12 -15 12 -17
11 -17 -3 0 -12 9 -16 35 -16 37 0 42 -8 24 -43 -30 -58 -79 -65 -98 -14 -13
34 -66 42 -87 13 -8 -11 -14 -26 -14 -32 0 -7 -6 -14 -12 -17 -18 -5 -48 4
-48 15 0 5 -10 6 -22 2 -13 -4 -39 -8 -59 -8 -36 -1 -37 0 -32 29 2 17 0 41
-6 55 -10 23 -11 21 -8 -15 6 -64 -29 -116 -64 -94 -8 5 -21 9 -29 9 -10 -1
-8 -7 9 -20 30 -26 62 -25 90 1 25 23 73 29 124 15 33 -10 77 15 77 44 0 15 7
20 29 20 23 0 30 -6 35 -25 7 -26 40 -45 76 -45 23 0 80 48 84 70 5 32 19 66
35 84 16 19 16 19 -11 0 -14 -10 -26 -21 -26 -24 1 -22 -4 -39 -18 -56 -15
-18 -15 -18 -5 3 16 32 14 41 -11 49 -29 8 -37 21 -31 45 8 27 30 23 37 -6 4
-14 11 -23 15 -20 5 3 7 14 4 25 -3 11 0 20 6 20 6 0 11 4 11 9 0 15 -25 20
-46 9z"/>
<path d="M1139 1544 c-3 -23 4 -70 12 -84 5 -9 6 4 2 35 -6 48 -12 69 -14 49z"/>
<path d="M408 1506 c-9 -8 -18 -36 -22 -63 -3 -27 -18 -66 -33 -87 l-26 -39
-23 26 c-13 16 -28 53 -35 89 -8 42 -14 56 -19 43 -7 -19 21 -114 42 -143 14
-19 26 -21 47 -8 11 7 13 5 8 -8 -5 -14 -3 -15 13 -6 20 11 37 31 23 29 -22
-4 -24 3 -8 27 9 15 20 46 23 71 9 55 26 61 30 9 2 -21 0 -36 -5 -33 -4 3 -8
-5 -8 -18 0 -13 3 -21 7 -19 4 2 8 -6 11 -18 3 -21 5 -1 10 116 2 43 -12 55
-35 32z"/>
<path d="M492 1498 c-6 -6 -12 -34 -12 -60 0 -79 -35 -129 -68 -96 -9 9 -12 9
-12 0 0 -18 41 -37 50 -22 4 6 10 11 14 11 3 -1 6 1 6 4 0 3 6 18 15 35 8 16
15 47 15 70 0 28 4 39 11 34 7 -4 9 -24 7 -49 -3 -23 0 -54 6 -69 9 -23 11
-13 11 61 0 70 -3 88 -15 91 -9 1 -21 -3 -28 -10z"/>
<path d="M306 1459 c3 -6 0 -15 -7 -20 -21 -13 13 -12 48 2 l28 12 -25 7 c-37
12 -52 11 -44 -1z"/>
<path d="M1082 1443 c-1 -17 -5 -40 -8 -50 -5 -14 -4 -15 5 -7 7 7 11 28 8 50
-3 35 -4 35 -5 7z"/>
<path d="M843 1448 c-5 -7 -15 -26 -22 -43 -6 -16 -20 -41 -30 -54 -16 -20
-21 -22 -41 -11 -18 10 -21 9 -18 -2 5 -15 67 -18 69 -3 1 6 9 21 19 35 16 24
43 90 36 90 -2 0 -8 -6 -13 -12z"/>
<path d="M873 1439 c-19 -23 -26 -66 -13 -86 10 -16 11 -15 6 8 -3 15 1 34 10
47 18 26 15 52 -3 31z"/>
<path d="M1220 1440 c-5 -36 -4 -46 7 -57 15 -16 27 -17 17 -1 -4 6 -11 25
-15 42 -4 17 -8 24 -9 16z"/>
<path d="M323 1423 c-38 -7 -23 -43 18 -43 20 0 7 20 -13 21 -21 1 -21 2 -3 6
11 3 24 9 30 14 9 9 7 10 -32 2z"/>
<path d="M202 1347 c-24 -25 -49 -82 -31 -71 6 3 18 23 26 42 14 33 16 34 25
17 17 -32 40 -45 77 -44 l36 1 -38 10 c-25 7 -45 20 -56 39 l-18 29 -21 -23z"/>
<path d="M1156 1278 c17 -103 17 -111 0 -72 -8 18 -19 35 -25 38 -7 5 -7 14 1
31 15 33 4 55 -27 55 -24 0 -25 -3 -21 -32 3 -18 10 -82 16 -143 6 -60 14
-112 17 -115 10 -11 43 44 50 84 l7 41 11 -55 c7 -37 15 -55 25 -55 13 0 14
17 12 101 -2 56 -8 116 -12 135 -6 21 -7 -14 -3 -91 3 -69 3 -123 0 -120 -7 7
-36 185 -39 238 -1 24 -7 42 -14 42 -8 0 -8 -21 2 -82z m-34 16 c-7 -36 -22
-39 -22 -5 0 22 4 31 13 28 6 -2 10 -13 9 -23z m28 -139 c0 -24 -5 -56 -12
-72 -11 -27 -12 -27 -19 27 -4 30 -7 73 -8 95 l0 40 19 -24 c13 -15 20 -38 20
-66z"/>
<path d="M1237 1313 c-12 -12 -6 -97 9 -138 9 -22 18 -53 21 -69 5 -24 3 -28
-11 -23 -9 4 -16 2 -16 -2 0 -13 25 -20 40 -11 14 9 11 29 -19 110 -23 63 -28
124 -8 118 6 -3 13 -22 15 -44 4 -73 13 -104 27 -104 12 0 15 17 15 79 0 76
-12 110 -30 81 -5 -9 -9 -9 -14 -1 -8 12 -19 14 -29 4z m62 -85 c-1 -47 -3
-57 -9 -38 -12 36 -12 100 0 100 6 0 10 -27 9 -62z"/>
<path d="M405 1290 c-72 -8 -98 -18 -91 -36 3 -7 0 -15 -7 -17 -7 -2 -10 -6
-7 -9 6 -6 157 5 163 12 9 10 17 60 10 58 -5 0 -35 -4 -68 -8z m-20 -25 c-35
-16 -64 -20 -49 -6 10 10 39 18 64 19 8 0 2 -6 -15 -13z m61 -10 c-11 -8 -34
-15 -50 -14 l-31 1 35 13 c49 19 71 19 46 0z"/>
<path d="M509 1273 c-6 -16 -12 -50 -14 -76 -2 -27 -6 -51 -9 -54 -14 -15 -5
-43 14 -43 11 0 20 7 20 15 0 20 37 19 48 -2 6 -10 16 -14 26 -10 10 4 14 11
11 17 -4 6 -15 43 -26 82 -28 102 -50 123 -70 71z m41 -94 c0 -11 -7 -19 -16
-19 -11 0 -14 5 -10 16 3 9 6 20 6 25 0 6 5 7 10 4 6 -3 10 -15 10 -26z"/>
<path d="M1036 1228 c-4 -40 -9 -90 -12 -110 -4 -24 -2 -38 5 -38 6 0 11 15
11 34 0 32 14 55 26 43 3 -2 12 -47 20 -98 9 -52 21 -98 26 -104 7 -7 8 0 4
20 -3 17 -15 86 -26 155 -11 69 -23 135 -25 148 -10 43 -23 21 -29 -50z m27
-15 c3 -29 1 -43 -7 -43 -7 0 -10 16 -8 46 5 54 7 53 15 -3z"/>
<path d="M657 1272 c-24 -27 -21 -47 14 -86 17 -20 28 -40 24 -46 -10 -16 -45
-12 -45 5 0 8 -9 15 -20 15 -26 0 -26 -24 0 -50 23 -23 61 -19 93 8 25 22 21
47 -14 87 -32 36 -33 61 -2 33 36 -31 59 4 25 35 -24 22 -55 21 -75 -1z"/>
<path d="M769 1253 c-5 -128 -3 -158 14 -161 14 -3 17 5 17 37 0 33 4 41 18
41 30 0 64 38 56 63 -11 38 -35 57 -71 57 -31 0 -33 -2 -34 -37z m66 -6 c21
-16 13 -37 -15 -37 -10 0 -20 -3 -23 -7 -2 -5 -2 -2 0 5 1 8 3 22 3 33 0 22 9
24 35 6z"/>
<path d="M896 1192 c0 -48 1 -91 2 -97 3 -16 102 -6 102 10 0 9 -14 15 -37 17
-49 4 -49 22 0 26 29 3 37 7 35 20 -2 11 -14 16 -38 16 -32 1 -35 3 -34 31 0
28 3 30 37 29 30 -1 37 2 37 17 0 16 -8 19 -52 19 l-53 0 1 -88z"/>
<path d="M361 1209 c-50 -10 -56 -13 -46 -28 4 -7 39 -10 88 -9 l82 2 -75 5
c-81 6 -74 21 10 21 27 0 52 5 55 10 7 12 -51 12 -114 -1z"/>
<path d="M1330 1060 l0 -40 -87 0 c-96 0 -118 -8 -109 -36 5 -17 18 -19 137
-19 l131 0 -7 60 c-3 33 -7 60 -8 61 -1 1 -14 4 -29 8 -27 6 -28 5 -28 -34z
m52 -30 l3 -50 -117 0 c-123 0 -168 16 -50 18 101 2 126 12 130 50 5 53 30 39
34 -18z"/>
<path d="M673 1083 c-9 -3 -13 -32 -13 -94 0 -82 1 -89 20 -89 22 0 24 10 11
58 -5 17 -8 32 -6 32 2 0 16 -20 32 -45 30 -49 35 -52 52 -32 8 10 5 21 -13
46 l-24 32 24 24 c28 28 30 38 8 59 -15 15 -65 20 -91 9z m61 -32 c6 -10 -28
-44 -36 -35 -3 3 -4 14 -1 25 5 19 28 26 37 10z"/>
<path d="M826 1081 c-5 -8 -36 -174 -36 -192 0 -5 9 -9 20 -9 11 0 20 6 20 14
0 8 4 17 9 20 14 9 41 -4 41 -20 0 -15 10 -17 32 -9 12 5 9 22 -16 93 -17 48
-35 93 -39 100 -9 14 -23 16 -31 3z m34 -95 c0 -20 -6 -36 -14 -39 -9 -4 -13
-1 -11 6 2 7 6 24 9 40 9 37 16 34 16 -7z"/>
<path d="M942 1063 c-48 -5 -54 -26 -8 -31 27 -3 28 -4 21 -55 -3 -29 -13 -77
-20 -108 -8 -31 -17 -80 -21 -108 l-7 -51 59 6 c69 8 66 7 58 28 -5 13 -14 15
-42 10 -33 -6 -35 -5 -29 17 3 13 11 63 17 112 6 48 15 99 20 113 12 30 13 75
3 72 -5 -1 -27 -3 -51 -5z"/>
<path d="M1024 995 c-21 -33 -31 -149 -14 -170 19 -22 55 -19 68 8 18 37 23
82 13 110 -17 45 -31 31 -31 -33 0 -45 -4 -60 -14 -60 -8 0 -16 5 -18 12 -7
21 9 100 22 108 10 6 9 9 -1 14 -8 3 -4 3 9 0 24 -6 29 5 10 24 -17 17 -26 15
-44 -13z"/>
<path d="M454 945 c-4 -9 3 -23 15 -34 l22 -19 -36 -64 c-41 -75 -42 -84 -15
-91 11 -3 20 -1 20 4 0 5 -6 9 -14 9 -11 0 -3 22 26 76 32 61 38 78 27 85 -8
5 -17 9 -21 9 -5 0 -8 5 -8 10 0 6 14 10 30 10 17 0 30 -5 30 -12 0 -9 3 -9
12 0 16 16 65 15 71 0 3 -7 6 -3 6 10 1 21 -2 22 -79 22 -63 0 -82 -3 -86 -15z"/>
<path d="M1131 888 l-29 -63 21 -18 c21 -18 22 -18 35 1 13 20 16 19 109 -39
53 -33 97 -59 98 -57 25 32 22 42 -24 73 -25 17 -68 44 -96 60 -27 16 -51 30
-53 31 -2 1 2 12 8 25 11 19 10 25 -6 36 -10 7 -21 13 -26 13 -4 0 -21 -28
-37 -62z m53 4 c-4 -23 0 -30 36 -50 22 -13 38 -27 35 -32 -3 -5 -21 0 -41 12
-31 18 -38 19 -60 8 -13 -7 -26 -11 -28 -9 -2 2 7 28 20 57 24 55 48 63 38 14z
m161 -128 c14 -9 23 -20 20 -24 -3 -5 -27 6 -54 23 -27 18 -47 36 -44 40 3 4
16 1 29 -7 13 -9 35 -23 49 -32z"/>
<path d="M1292 930 c-67 -7 -78 -12 -67 -30 7 -11 180 -130 189 -130 3 0 10 9
16 20 9 16 6 22 -20 35 -33 17 -42 58 -15 69 8 3 15 15 15 26 0 22 -7 23 -118
10z m85 -35 c-11 -24 -12 -24 -15 -4 -3 18 -8 20 -35 15 -47 -10 -49 -19 -11
-44 18 -12 34 -18 34 -14 0 5 -12 15 -27 22 -26 12 -27 13 -8 20 26 10 32 5
40 -28 3 -15 20 -38 38 -51 59 -43 -2 -12 -80 41 l-78 53 45 6 c25 3 59 7 77
7 30 2 31 1 20 -23z"/>
<path d="M524 890 c-13 -29 -54 -148 -54 -155 0 -3 4 -5 9 -5 5 0 13 17 18 38
11 45 28 40 25 -8 -1 -28 0 -31 7 -15 9 19 10 18 11 -5 2 -21 4 -18 15 15 9
26 14 32 14 18 1 -28 11 -53 21 -53 5 0 2 21 -7 46 -15 43 -14 46 6 68 11 12
21 30 21 39 0 16 -37 43 -47 33 -3 -3 -8 -36 -12 -73 l-6 -68 -5 75 c-5 65 -7
72 -16 50z m72 -11 c3 -6 -1 -18 -10 -27 -15 -15 -16 -14 -16 11 0 27 13 36
26 16z"/>
<path d="M615 809 c-4 -44 -4 -83 -1 -86 3 -4 6 7 6 23 0 46 11 73 30 79 37
12 28 65 -11 65 -14 0 -18 -14 -24 -81z m41 60 c3 -6 -1 -18 -10 -27 -15 -15
-16 -14 -16 11 0 27 13 36 26 16z"/>
<path d="M666 804 c-15 -41 -25 -81 -23 -87 2 -7 9 5 16 26 17 51 41 49 41 -4
0 -36 2 -40 22 -37 45 6 76 120 44 164 -20 27 -26 16 -33 -65 -8 -99 -23 -100
-23 -2 0 45 -4 81 -9 81 -4 0 -21 -34 -35 -76z m96 -3 c-1 -47 -21 -95 -22
-51 0 36 12 101 18 96 2 -3 4 -23 4 -45z"/>
<path d="M801 833 c-25 -88 -2 -190 29 -132 19 34 25 136 10 154 -19 23 -28
18 -39 -22z m20 -103 c-8 -21 -10 -14 -10 36 -1 33 2 64 7 68 11 12 14 -77 3
-104z"/>
<path d="M1131 769 c-23 -9 -50 -36 -51 -50 0 -4 19 -19 43 -34 23 -15 63 -45
88 -66 40 -34 48 -37 59 -24 7 8 10 22 6 30 -4 12 3 19 24 27 30 10 35 22 24
51 -5 14 -11 14 -45 2 -37 -13 -39 -13 -50 8 -16 31 -50 67 -63 66 -6 0 -22
-5 -35 -10z m53 -22 c8 -7 21 -27 30 -45 l16 -31 40 14 c22 8 42 10 45 6 5
-10 -37 -41 -55 -41 -7 0 -9 -8 -5 -21 5 -16 3 -20 -6 -16 -8 2 -13 10 -11 17
2 7 -3 10 -11 7 -15 -6 -117 68 -117 85 0 13 30 37 48 38 7 0 19 -6 26 -13z"/>
<path d="M1124 728 c-7 -10 41 -58 59 -58 12 0 8 45 -5 58 -15 15 -45 15 -54
0z m46 -13 c7 -9 10 -18 7 -22 -8 -7 -37 15 -37 28 0 14 16 11 30 -6z"/>
<path d="M375 710 c-8 -13 2 -17 88 -30 54 -9 77 -17 77 -27 0 -12 -15 -13
-86 -7 -69 6 -86 4 -82 -6 2 -8 26 -15 61 -17 73 -6 139 -25 145 -42 4 -11
-12 -13 -82 -9 -63 3 -86 1 -86 -8 0 -7 27 -17 68 -23 81 -14 102 -20 102 -29
0 -4 -38 -6 -85 -4 -67 3 -85 1 -85 -10 0 -10 25 -19 78 -28 l77 -14 -82 -6
c-45 -3 -85 -9 -89 -12 -12 -13 5 -38 25 -38 11 0 23 -4 26 -10 3 -5 0 -10 -8
-10 -21 0 -42 -29 -30 -41 5 -5 29 -13 54 -18 28 -6 35 -9 18 -10 -14 -1 -34
-8 -45 -16 -19 -15 -19 -15 1 -31 17 -13 39 -15 139 -10 110 5 150 15 133 33
-4 3 -36 1 -71 -5 -76 -14 -176 -16 -176 -3 0 11 68 27 158 37 101 11 71 24
-57 24 -66 0 -122 4 -125 9 -10 15 21 21 105 21 43 0 79 4 79 9 0 4 -29 11
-65 15 -156 16 -168 34 -27 38 78 2 97 6 97 18 0 9 -11 16 -30 18 -40 5 -58
22 -22 22 22 0 27 5 27 25 0 17 -6 25 -17 25 -17 1 -17 2 0 15 23 17 19 46 -9
60 -17 8 -19 14 -11 32 7 16 16 21 31 18 12 -2 38 -7 59 -10 20 -3 37 -10 37
-15 0 -6 5 -10 11 -10 6 0 9 8 7 18 -4 21 -58 41 -114 41 -22 1 -67 6 -100 11
-32 6 -71 12 -86 15 -15 2 -30 0 -33 -5z"/>
<path d="M864 703 c5 -12 -4 -26 -29 -48 -34 -29 -35 -31 -20 -52 31 -44 95
-18 68 26 -7 11 -8 23 -1 34 11 20 2 57 -14 57 -5 0 -7 -8 -4 -17z"/>
<path d="M992 674 c-59 -41 -1 -116 122 -158 45 -15 50 -15 73 0 21 13 24 21
19 47 -8 41 -38 71 -100 102 -58 29 -83 31 -114 9z m91 -15 c52 -14 97 -57
100 -94 2 -25 -2 -31 -23 -33 -58 -9 -170 56 -170 97 0 39 29 48 93 30z"/>
<path d="M1037 648 c-44 -24 15 -90 82 -92 29 -1 37 3 39 19 6 41 -83 95 -121
73z m73 -30 c44 -30 49 -48 15 -48 -36 0 -85 30 -85 52 0 25 30 23 70 -4z"/>
<path d="M638 609 c-23 -13 -23 -35 -2 -43 28 -11 84 4 84 22 0 12 -3 13 -12
4 -14 -14 -68 -16 -68 -2 0 6 15 10 33 10 24 0 28 3 17 10 -19 12 -30 12 -52
-1z"/>
<path d="M736 561 c-15 -24 152 -37 176 -13 9 9 0 12 -43 12 -29 0 -70 3 -90
6 -22 4 -39 2 -43 -5z"/>
<path d="M663 553 c-18 -2 -33 -8 -33 -13 0 -4 9 -6 20 -3 11 3 20 0 20 -6 0
-6 -10 -11 -22 -11 -13 0 -18 -4 -12 -8 13 -12 114 -2 114 10 0 6 -14 8 -35 4
-22 -4 -35 -3 -35 4 0 5 9 10 20 10 11 0 20 5 20 10 0 6 -6 9 -12 8 -7 0 -28
-3 -45 -5z"/>
<path d="M960 543 c0 -10 9 -38 20 -62 11 -24 20 -45 20 -48 0 -2 -16 -1 -37
3 -29 5 -35 4 -31 -7 53 -133 61 -149 79 -149 21 0 25 21 8 52 -15 28 -7 31
35 12 51 -25 64 -9 37 47 -12 23 -21 44 -21 46 0 2 13 -4 30 -14 28 -16 31
-16 46 -1 22 22 13 33 -59 70 -34 17 -73 39 -86 49 -30 24 -41 24 -41 2z m153
-88 c27 -19 5 -26 -28 -9 -34 17 -41 13 -25 -15 6 -12 13 -35 15 -51 l3 -29
-39 16 c-22 8 -42 13 -44 11 -3 -3 0 -19 6 -37 20 -57 2 -44 -20 14 -12 31
-21 58 -21 60 0 3 14 5 30 5 17 0 30 1 30 3 0 1 -9 26 -20 56 l-21 53 58 -32
c32 -18 66 -38 76 -45z"/>
<path d="M843 513 c-32 -6 -29 -33 3 -33 32 0 66 18 59 31 -6 9 -22 10 -62 2z"/>
<path d="M736 484 c-5 -14 -15 -15 -53 -10 -34 4 -44 3 -36 -5 15 -15 94 -14
104 2 11 18 11 29 0 29 -5 0 -12 -7 -15 -16z"/>
<path d="M770 485 c0 -8 5 -15 10 -15 6 0 10 7 10 15 0 8 -4 15 -10 15 -5 0
-10 -7 -10 -15z"/>
<path d="M865 463 c-40 -9 -55 -63 -18 -63 10 0 13 -6 9 -16 -3 -9 -6 -18 -6
-20 0 -2 -13 -4 -30 -4 -20 0 -30 -5 -30 -15 0 -13 11 -15 62 -13 52 3 63 6
66 22 3 15 0 18 -17 13 -24 -6 -27 3 -8 22 10 10 8 15 -6 25 -16 13 -16 14 3
19 11 3 20 12 20 21 0 16 -8 18 -45 9z"/>
<path d="M700 431 c59 -6 58 -15 -3 -26 -20 -4 -37 -11 -37 -16 0 -9 13 -7 80
11 14 3 26 14 28 23 3 15 -5 17 -60 15 l-63 -1 55 -6z"/>
<path d="M730 388 c-59 -13 -70 -24 -31 -33 26 -5 30 -9 20 -21 -12 -15 -9
-17 39 -27 27 -6 29 9 2 18 -11 4 -18 11 -15 16 4 5 -1 12 -9 15 -25 9 -8 24
27 24 18 0 39 5 47 10 20 13 -17 12 -80 -2z"/>
<path d="M848 292 c-16 -10 -28 -24 -28 -32 0 -27 30 -60 56 -60 19 0 24 5 24
24 0 14 -5 28 -10 31 -6 3 -7 17 -4 31 7 28 0 29 -38 6z m22 -52 c8 -5 11 -12
7 -16 -4 -4 -15 0 -24 9 -18 18 -8 23 17 7z"/>
<path d="M733 243 c-13 -2 -23 -9 -23 -15 0 -5 7 -7 16 -4 14 5 15 -4 9 -78
-4 -49 -3 -86 2 -89 16 -10 53 4 53 20 0 13 -2 13 -17 2 -9 -8 -14 -9 -11 -4
10 17 12 169 2 171 -5 0 -19 -1 -31 -3z"/>
<path d="M639 233 c-2 -17 2 -91 7 -136 6 -47 7 -48 38 -45 34 3 33 -5 21 121
-6 66 -7 67 -36 67 -16 0 -29 -3 -30 -7z m55 -55 c9 -77 7 -118 -4 -118 -5 0
-10 12 -10 28 -1 15 -3 53 -7 85 -7 73 12 77 21 5z"/>
<path d="M393 178 c4 -29 7 -72 7 -95 0 -37 3 -43 21 -43 20 0 21 3 14 56 -6
50 -5 56 9 51 10 -4 16 -1 16 9 0 10 -6 14 -15 10 -12 -4 -15 2 -14 27 1 18 3
24 6 15 2 -10 9 -18 14 -18 6 0 9 8 7 18 -2 11 -14 18 -37 20 l-34 3 6 -53z"/>
<path d="M470 196 c0 -18 3 -61 6 -95 6 -53 9 -61 28 -61 34 0 53 17 38 32 -9
9 -12 8 -12 -6 0 -9 -4 -14 -10 -11 -5 3 -10 22 -10 42 0 27 3 34 15 29 9 -3
15 0 15 10 0 10 -6 14 -14 11 -10 -4 -16 5 -21 30 -7 39 1 56 15 33 8 -13 10
-12 10 3 0 12 -8 17 -30 17 -27 0 -30 -3 -30 -34z"/>
<path d="M552 148 c9 -93 13 -108 28 -108 15 0 13 87 -2 93 -10 4 -10 6 -1 6
14 1 43 -50 43 -76 0 -12 3 -14 11 -6 8 8 5 22 -9 49 -14 29 -17 43 -9 55 5 9
7 28 3 42 -5 22 -12 27 -39 27 l-33 0 8 -82z m53 51 c5 -14 1 -27 -9 -37 -15
-15 -16 -13 -16 21 0 40 15 50 25 16z"/>
</g>
</svg>
