 <svg  version="1.0" xmlns="http://www.w3.org/2000/svg"  width="300.000000pt" height="167.000000pt" viewBox="0 0 300.000000 167.000000"  preserveAspectRatio="xMidYMid meet">  <g transform="translate(0.000000,167.000000) scale(0.100000,-0.100000)" fill="#adff2f" stroke="none"> <path d="M825 1654 c134 -40 156 -58 115 -91 -8 -7 -10 -13 -5 -13 14 0 18 -50 4 -50 -5 0 -8 -4 -4 -9 9 -15 10 -125 1 -139 -4 -7 -2 -12 4 -12 6 0 9 -4 5 -10 -3 -5 -6 -39 -7 -75 -1 -61 -3 -66 -25 -71 -14 -4 -36 -17 -50 -30 -26 -24 -53 -32 -53 -15 0 5 -9 13 -20 16 -11 4 -18 10 -15 15 3 5 -3 15 -15 22 -11 7 -20 16 -20 21 0 11 -41 68 -68 94 -13 13 -22 29 -21 35 4 22 -12 48 -30 49 -11 0 -9 3 7 9 27 11 29 20 3 13 -11 -3 -21 2 -24 11 -8 20 -27 21 -27 1 0 -17 -39 -59 -47 -51 -3 3 -6 19 -7 36 -1 28 -4 30 -38 30 -27 0 -38 4 -38 15 0 9 -6 12 -17 9 -13 -4 -14 -3 -5 3 10 8 10 12 -3 23 -8 7 -15 20 -15 29 1 12 7 9 23 -11 36 -44 63 -35 56 18 -1 10 24 23 33 18 4 -3 1 -21 -7 -41 -21 -50 -19 -55 18 -48 25 5 29 4 17 -5 -13 -10 -13 -11 0 -7 16 4 33 97 18 97 -4 0 -8 -11 -8 -24 0 -23 -25 -54 -36 -43 -3 3 2 19 11 37 21 41 17 46 -45 49 -48 2 -35 20 18 24 l47 3 -46 2 c-56 2 -81 -18 -57 -46 8 -9 18 -25 21 -35 6 -15 3 -16 -13 -7 -10 5 -22 19 -25 30 -4 11 -11 18 -16 15 -13 -9 -11 17 4 36 30 39 111 45 139 10 21 -24 41 -74 27 -65 -7 4 -10 1 -7 -7 3 -8 13 -13 22 -11 14 3 16 -1 11 -20 -4 -13 -12 -24 -16 -26 -5 -2 -2 -10 6 -18 11 -11 22 -13 47 -5 31 9 32 9 6 10 -42 2 -45 21 -3 21 22 0 34 4 30 10 -4 6 -10 8 -15 5 -10 -6 -33 21 -37 43 -1 9 -7 18 -12 20 -6 2 -11 10 -11 18 0 63 -119 106 -174 63 -32 -25 -60 -75 -52 -95 3 -8 0 -14 -7 -14 -7 0 -4 -5 6 -11 9 -5 17 -18 17 -28 0 -22 25 -46 63 -60 15 -6 33 -23 40 -38 6 -16 17 -32 24 -38 7 -5 19 -30 28 -55 9 -24 19 -47 23 -50 19 -14 80 -98 83 -114 2 -11 10 -21 17 -24 21 -7 3 49 -26 78 -27 27 -72 111 -72 134 0 17 43 30 49 14 2 -6 19 -28 37 -48 19 -21 41 -54 49 -74 9 -20 33 -54 54 -75 31 -31 44 -38 66 -33 29 5 67 36 57 46 -3 3 6 6 19 6 55 0 56 5 64 270 l6 245 -32 2 c-30 2 -31 1 -13 -12 18 -14 18 -14 -2 -15 -12 0 -41 7 -64 15 -23 8 -54 15 -69 14 -19 0 -12 -5 24 -15z m-201 -289 c3 -10 -1 -15 -13 -15 -10 0 -24 -7 -32 -16 -11 -14 -13 -14 -22 1 -11 21 8 45 38 45 13 0 25 -7 29 -15z"/> <path d="M1088 1657 c-1 -7 -2 -38 -2 -69 -1 -52 0 -55 15 -42 22 20 30 61 14 74 -6 5 -15 7 -18 3 -4 -3 -7 1 -7 11 0 15 2 15 23 1 22 -14 24 -14 34 7 9 21 8 23 -23 25 -20 1 -35 -3 -36 -10z"/> <path d="M1186 1654 c18 -14 18 -15 -2 -9 -13 3 -24 0 -27 -8 -8 -21 35 -15 56 7 9 10 17 20 17 21 0 1 -14 2 -31 3 -29 1 -30 0 -13 -14z"/> <path d="M1232 1650 c-6 -11 -12 -28 -12 -37 1 -13 5 -10 16 10 17 32 34 35 34 7 0 -14 -5 -18 -17 -14 -17 5 -17 5 0 -6 9 -6 15 -17 11 -23 -3 -7 2 -3 10 7 22 27 20 53 -3 66 -25 13 -24 13 -39 -10z"/> <path d="M1300 1628 c4 -21 3 -38 -1 -38 -5 0 -1 -8 9 -18 21 -23 30 -19 11 5 -12 15 -12 16 3 10 21 -7 51 35 45 66 -3 21 -4 21 -11 2 -13 -36 -22 -49 -34 -51 -8 -2 -8 0 -2 3 8 3 7 9 -1 19 -10 12 -8 13 7 8 18 -5 18 -5 0 6 -15 10 -16 14 -5 21 10 6 8 8 -7 7 -18 -2 -20 -6 -14 -40z"/> <path d="M1382 1643 c2 -20 -4 -34 -19 -46 -13 -10 -23 -24 -23 -31 0 -15 58 -38 65 -25 3 4 -5 11 -19 15 -25 6 -25 6 -7 32 28 39 36 82 16 82 -12 0 -15 -8 -13 -27z"/> <path d="M1467 1663 c-3 -5 -8 -27 -12 -51 -4 -23 -13 -49 -21 -57 -13 -12 -12 -15 5 -24 14 -8 22 -6 35 8 18 19 22 71 6 71 -5 0 -10 5 -10 12 0 9 3 9 12 0 9 -9 16 -8 30 5 23 21 23 43 1 43 -15 0 -16 -2 -3 -10 9 -6 10 -10 3 -10 -6 0 -15 5 -18 10 -7 12 -22 13 -28 3z"/> <path d="M1551 1659 c-1 -8 -12 -26 -26 -39 -27 -26 -33 -65 -11 -73 9 -4 13 -15 10 -29 -4 -21 -4 -21 5 -3 5 12 16 27 25 34 16 14 23 77 7 67 -5 -3 -7 -14 -4 -24 2 -10 -3 -24 -11 -31 -13 -11 -16 -11 -16 3 0 9 -6 16 -12 16 -9 0 -8 4 2 10 8 5 11 10 5 10 -5 1 0 5 13 11 14 5 20 13 16 20 -4 8 -3 9 5 5 16 -10 51 3 51 20 0 8 -9 14 -21 14 -11 0 -17 -4 -14 -10 3 -5 2 -10 -4 -10 -5 0 -12 6 -14 13 -4 8 -6 7 -6 -4z"/> <path d="M1672 1651 c4 -18 56 -46 66 -36 3 3 1 14 -5 24 -10 16 -9 18 6 14 11 -3 22 0 25 6 4 6 -12 9 -44 9 -40 -1 -50 -5 -48 -17z"/> <path d="M1772 1647 c-12 -13 -22 -29 -22 -35 0 -16 32 -15 49 1 11 10 13 8 8 -11 -5 -20 -3 -22 11 -10 9 7 6 1 -6 -14 -22 -24 -23 -29 -10 -55 7 -15 20 -28 28 -28 12 0 14 10 10 50 -2 28 -4 67 -4 88 0 20 -4 37 -9 37 -4 0 -5 -6 -1 -12 6 -10 4 -10 -7 0 -18 17 -22 16 -47 -11z"/> <path d="M1927 1663 c-13 -12 -7 -46 11 -59 15 -13 15 -14 -8 -11 -28 2 -37 -24 -25 -71 6 -25 6 -25 26 -5 26 26 40 153 17 153 -8 0 -18 -3 -21 -7z"/> <path d="M2012 1645 c-2 -24 28 -52 42 -38 16 16 -9 -65 -26 -84 -16 -17 -18 -25 -9 -42 7 -13 8 -21 2 -21 -16 0 -61 -49 -61 -67 0 -9 8 -21 17 -28 24 -18 63 8 63 41 0 32 -16 31 -24 -1 -7 -26 -30 -33 -42 -13 -4 6 -3 9 2 6 11 -7 35 17 27 26 -4 3 -1 6 6 6 7 0 9 5 5 11 -4 7 0 9 13 5 33 -11 42 14 41 111 0 50 3 96 6 102 5 7 -4 11 -26 11 -29 0 -34 -4 -36 -25z"/> <path d="M2130 1638 c0 -30 0 -31 20 -13 11 10 20 24 20 32 0 7 -9 13 -20 13 -16 0 -20 -7 -20 -32z"/> <path d="M2429 1636 c0 -17 -3 -25 -6 -18 -2 7 -14 17 -25 23 -26 14 -48 -5 -48 -42 0 -41 30 -27 31 15 2 30 2 30 6 3 6 -37 39 -54 63 -32 14 13 16 23 10 45 -4 16 -6 30 -4 33 2 2 -3 4 -11 4 -10 0 -15 -11 -16 -31z"/> <path d="M2527 1655 c17 -7 38 -26 47 -42 l15 -28 1 28 c0 23 -7 31 -35 43 -19 7 -40 14 -47 14 -7 -1 1 -7 19 -15z"/> <path d="M2875 1656 c22 -7 42 -9 45 -6 3 4 12 9 20 12 8 3 -12 6 -45 6 l-60 0 40 -12z"/> <path d="M2951 1649 c-29 -11 -24 -18 17 -23 25 -4 30 -1 29 15 -1 21 -10 22 -46 8z"/> <path d="M2253 1643 c-18 -7 -17 -93 1 -93 17 0 31 18 38 47 6 24 -19 53 -39 46z"/> <path d="M2155 1620 c-25 -27 -26 -59 -4 -71 26 -14 27 -13 31 41 3 55 0 59 -27 30z"/> <path d="M2484 1625 c-4 -8 -3 -21 0 -27 33 -65 46 -68 46 -13 0 45 -33 74 -46 40z"/> <path d="M2600 1612 c0 -15 5 -34 11 -42 8 -12 10 -9 6 13 -2 15 0 30 4 33 5 3 9 -5 10 -18 1 -23 1 -23 9 2 7 22 8 22 9 4 1 -11 8 -29 16 -40 14 -18 14 -18 15 9 0 15 4 27 9 27 26 0 63 -22 73 -45 10 -23 13 -24 29 -9 29 26 117 -6 131 -48 5 -14 28 -2 28 15 0 16 -133 66 -282 107 l-68 18 0 -26z"/> <path d="M1597 1624 c-4 -4 -7 -19 -7 -33 0 -13 -10 -35 -22 -48 -12 -13 -18 -26 -14 -30 4 -4 12 1 18 11 8 15 12 16 19 5 5 -8 3 -17 -4 -21 -9 -6 -9 -8 1 -8 6 0 12 -5 12 -11 0 -5 -4 -8 -8 -5 -5 3 -9 -1 -9 -9 0 -11 4 -12 14 -4 16 14 17 61 1 78 -11 11 -9 12 9 7 12 -4 24 -2 28 4 3 5 11 10 17 10 6 0 4 -8 -5 -18 -10 -10 -17 -30 -17 -43 0 -14 -5 -30 -10 -35 -7 -7 -6 -11 4 -11 8 0 13 5 9 10 -3 5 3 6 14 3 27 -9 57 26 51 58 -3 16 -1 23 5 19 6 -3 7 -1 3 5 -4 7 -13 12 -21 12 -25 0 -63 22 -72 42 -4 11 -12 16 -16 12z m80 -91 c-4 -3 -2 -12 3 -18 14 -17 -11 -37 -30 -25 -11 7 -11 12 -2 23 7 7 9 17 5 20 -3 4 2 7 12 7 10 0 15 -3 12 -7z"/> <path d="M1135 1589 c-5 -16 -2 -26 11 -36 17 -12 21 -11 38 9 18 22 18 23 0 27 -11 2 -24 7 -31 13 -8 6 -14 2 -18 -13z"/> <path d="M2010 1563 c0 -39 2 -44 15 -33 8 7 15 25 15 40 0 16 -7 30 -15 34 -12 4 -15 -4 -15 -41z"/> <path d="M2459 1577 c-9 -7 -19 -26 -23 -44 -4 -17 -16 -39 -27 -49 -19 -17 -26 -58 -11 -67 4 -2 2 -3 -5 -1 -21 5 -44 -32 -37 -60 5 -20 2 -26 -9 -26 -28 0 -29 -20 -3 -30 14 -5 26 -12 26 -15 0 -4 -4 -4 -9 0 -5 3 -12 -4 -16 -15 -10 -30 -25 -24 -25 11 0 17 -4 28 -10 24 -15 -9 -12 -41 5 -55 8 -7 12 -17 8 -24 -3 -6 8 2 26 19 36 33 39 72 6 67 -18 -2 -19 -2 -2 8 9 6 21 9 26 6 18 -12 38 30 39 81 1 54 15 92 38 106 8 4 15 22 15 40 2 30 2 30 6 5 5 -31 23 -38 23 -9 0 28 -21 42 -41 28z"/> <path d="M1195 1560 c-20 -22 -14 -33 21 -44 29 -9 39 26 15 49 -16 14 -19 13 -36 -5z"/> <path d="M2367 1565 c-24 -17 -22 -62 3 -75 18 -10 24 -7 21 13 0 4 5 6 12 5 6 -2 13 9 15 24 4 34 -25 53 -51 33z"/> <path d="M2580 1532 c0 -26 5 -53 12 -60 8 -8 9 -12 1 -12 -15 0 -11 -22 9 -51 15 -24 16 -23 16 29 1 29 -3 50 -7 48 -5 -3 -6 6 -3 19 5 31 -5 75 -18 75 -6 0 -10 -22 -10 -48z"/> <path d="M2635 1560 c-5 -8 -4 -15 2 -17 7 -3 10 -20 7 -41 -4 -35 -3 -36 11 -18 19 24 19 47 2 71 -11 14 -16 15 -22 5z"/> <path d="M2706 1562 c-3 -5 -6 -42 -6 -83 -1 -41 -2 -103 -3 -139 -2 -62 6 -126 17 -137 11 -11 26 10 26 35 0 34 -14 57 -29 48 -13 -8 -14 3 -2 23 5 7 5 29 1 47 -6 27 -5 33 4 25 7 -6 15 -9 18 -6 2 3 3 -9 0 -25 -5 -35 5 -83 16 -76 5 3 7 -8 4 -23 -5 -37 15 -78 31 -62 8 8 7 21 -2 48 -16 44 -41 160 -41 190 0 12 -6 28 -12 35 -14 14 -18 89 -5 81 4 -2 7 0 7 6 0 14 -17 23 -24 13z"/> <path d="M1260 1531 c0 -36 26 -48 51 -25 26 23 24 30 -12 43 -41 14 -39 15 -39 -18z"/> <path d="M1714 1545 c-15 -39 20 -67 54 -42 21 16 13 35 -18 46 -25 8 -32 7 -36 -4z"/> <path d="M2270 1545 c-7 -8 -10 -26 -8 -40 3 -13 2 -22 -2 -20 -16 10 -32 -25 -25 -54 8 -37 21 -47 40 -31 9 8 14 35 14 86 0 41 -1 74 -3 74 -2 0 -9 -7 -16 -15z"/> <path d="M1098 1525 c-25 -33 -23 -62 4 -71 16 -5 27 0 41 17 l19 24 -26 3 c-23 3 -25 6 -15 18 10 12 14 12 20 2 4 -7 12 -9 16 -4 7 7 -23 36 -36 36 -3 0 -14 -11 -23 -25z"/> <path d="M2129 1548 c-7 -25 -9 -58 -4 -77 6 -23 6 -23 28 -5 22 19 22 19 5 -2 -24 -28 -27 -64 -6 -77 29 -19 37 2 26 74 -7 46 -15 69 -29 77 -10 7 -19 11 -20 10z"/> <path d="M2737 1543 c-11 -11 -7 -67 7 -92 12 -22 13 -22 19 23 8 60 -4 92 -26 69z"/> <path d="M1326 1509 c-15 -26 -15 -27 9 -33 14 -4 25 -10 25 -15 0 -15 -32 -22 -46 -10 -11 9 -14 8 -14 -4 0 -8 7 -21 16 -28 14 -11 19 -10 35 10 24 29 24 49 2 74 -17 19 -17 20 3 9 12 -6 25 -8 28 -4 4 4 5 -5 1 -19 -5 -20 -2 -27 18 -36 18 -9 28 -8 36 0 23 23 10 42 -43 63 l-54 21 -16 -28z"/> <path d="M2837 1526 c-10 -26 -8 -64 4 -89 9 -20 9 -20 -4 -5 -18 23 -27 13 -27 -30 0 -30 2 -33 16 -21 40 33 56 108 31 143 -13 18 -14 18 -20 2z"/> <path d="M1930 1506 c-15 -19 -9 -62 8 -58 8 1 11 -2 7 -8 -10 -16 21 -11 36 6 11 13 10 17 -4 25 -9 6 -17 19 -17 29 0 24 -13 26 -30 6z"/> <path d="M2960 1506 c0 -8 -7 -16 -15 -20 -8 -3 -15 -14 -15 -25 0 -11 -4 -22 -8 -25 -12 -7 -14 -88 -3 -105 11 -18 31 -5 31 20 0 11 -7 34 -16 52 -15 32 -15 32 3 9 l19 -23 0 28 c1 63 4 75 24 80 11 3 17 9 14 14 -8 14 -34 10 -34 -5z"/> <path d="M1852 1498 c-19 -19 -15 -66 7 -77 14 -8 20 -7 24 3 3 8 -2 16 -12 19 -10 2 -18 12 -18 21 0 18 15 20 37 6 12 -8 12 -10 -5 -10 -18 -1 -18 -2 3 -14 21 -11 22 -14 8 -25 -18 -15 -21 -41 -5 -41 5 0 7 5 3 12 -5 8 -2 9 11 4 16 -6 16 -4 4 11 -12 15 -12 16 4 10 10 -4 20 -7 21 -7 2 0 1 -11 -2 -25 -2 -14 -9 -25 -15 -25 -6 0 -7 -3 -4 -6 11 -11 37 17 37 40 0 12 -9 27 -20 34 -13 8 -20 23 -20 42 0 17 -4 30 -9 30 -5 0 -15 2 -23 5 -7 3 -19 0 -26 -7z"/> <path d="M2508 1498 c-33 -27 -38 -51 -16 -81 13 -19 17 -32 11 -38 -7 -7 -13 1 -18 23 -7 32 -7 32 -15 8 -9 -32 5 -60 30 -60 18 0 20 7 21 58 0 31 2 67 3 80 3 26 4 25 -16 10z"/> <path d="M1180 1485 c7 -8 19 -15 27 -15 11 0 14 -8 11 -29 -5 -37 23 -58 44 -33 34 39 25 69 -19 66 -15 -1 -23 4 -23 15 0 14 -2 14 -11 1 -8 -11 -12 -12 -16 -2 -2 6 -9 12 -15 12 -6 0 -6 -6 2 -15z"/> <path d="M1767 1482 c-19 -21 -23 -62 -6 -62 5 0 7 5 4 10 -3 6 0 10 7 10 10 0 9 3 -2 11 -11 8 -6 9 20 5 35 -6 35 -6 10 10 -23 14 -23 14 -2 9 25 -7 31 10 6 19 -21 8 -19 9 -37 -12z"/> <path d="M1460 1475 c0 -23 36 -37 50 -20 10 12 7 16 -15 25 -34 13 -35 13 -35 -5z"/> <path d="M1686 1471 c-10 -11 -16 -26 -13 -33 4 -11 6 -11 6 0 1 7 6 10 13 6 7 -4 8 -3 4 4 -4 7 -1 12 7 12 17 0 30 -37 16 -46 -5 -3 -18 -2 -29 1 -24 8 -27 -10 -4 -19 37 -14 71 53 42 82 -16 16 -22 15 -42 -7z"/> <path d="M2341 1443 c-2 -47 -2 -47 18 -29 32 29 24 76 -13 76 -1 0 -3 -21 -5 -47z"/> <path d="M1146 1455 c-21 -33 -20 -62 3 -74 15 -9 22 -6 35 14 21 33 20 62 -3 74 -15 9 -22 6 -35 -14z"/> <path d="M2657 1473 c-9 -8 -9 -56 -1 -77 12 -32 24 -15 24 34 0 46 -7 60 -23 43z"/> <path d="M1517 1442 c-9 -10 -17 -28 -17 -40 0 -24 35 -49 45 -31 4 6 -2 13 -14 16 -12 3 -21 12 -21 19 0 18 10 18 38 -2 23 -16 23 -16 20 17 -4 40 -26 49 -51 21z"/> <path d="M1080 1404 c0 -39 2 -45 14 -35 21 18 30 62 14 72 -24 15 -28 10 -28 -37z"/> <path d="M1585 1442 c-13 -13 -3 -44 18 -51 20 -8 57 10 57 28 0 8 -69 29 -75 23z"/> <path d="M2062 1438 c-18 -18 -15 -56 7 -67 14 -8 23 -6 36 9 19 21 14 50 -9 50 -8 0 -16 5 -18 10 -2 7 -8 6 -16 -2z"/> <path d="M1356 1416 c-20 -32 -20 -60 0 -77 14 -11 19 -9 34 11 11 14 21 36 23 50 3 21 4 20 6 -6 0 -19 8 -34 17 -38 20 -8 54 20 54 43 0 12 -3 12 -12 3 -7 -7 -19 -12 -27 -12 -12 0 -13 2 -3 9 18 11 -6 30 -33 25 -10 -1 -25 1 -31 7 -8 6 -17 2 -28 -15z"/> <path d="M1815 1410 c-19 -21 -19 -21 7 -11 19 7 28 7 31 -2 2 -7 7 -9 11 -6 3 3 -2 13 -12 22 -18 16 -20 16 -37 -3z"/> <path d="M1275 1400 c-10 -11 -15 -28 -12 -40 3 -11 1 -18 -4 -14 -5 3 -9 1 -9 -5 0 -5 10 -13 22 -17 16 -5 27 -1 40 16 23 29 23 52 -1 67 -16 10 -22 8 -36 -7z"/> <path d="M2579 1410 c-5 -21 -4 -88 1 -100 4 -8 10 -33 13 -55 3 -22 3 -34 0 -27 -8 22 -33 -7 -33 -38 0 -27 21 -56 33 -44 3 3 3 -12 0 -34 -3 -22 -1 -42 4 -45 5 -3 9 46 10 118 0 90 -2 123 -11 118 -6 -3 -6 0 2 8 16 18 15 61 -3 85 -8 10 -15 17 -16 14z"/> <path d="M1187 1382 c-22 -24 -22 -61 0 -77 14 -11 20 -9 35 10 22 29 23 71 2 79 -21 8 -19 9 -37 -12z"/> <path d="M1651 1386 c-9 -11 -6 -15 15 -20 20 -5 24 -10 15 -19 -8 -8 -14 -8 -23 1 -18 18 -28 14 -28 -12 0 -13 7 -27 16 -30 23 -9 26 -8 18 7 -4 6 -4 9 1 5 13 -12 35 12 35 38 0 29 -33 50 -49 30z"/> <path d="M1721 1387 c-17 -17 -13 -33 12 -46 l22 -12 -23 5 c-13 3 -21 2 -18 -1 3 -3 -6 -14 -19 -25 -30 -23 -33 -63 -6 -77 36 -20 68 46 39 78 -11 11 -10 13 4 8 20 -7 48 22 48 50 0 23 -42 37 -59 20z"/> <path d="M2272 1388 c-18 -18 -15 -55 6 -68 15 -10 14 -10 -5 -5 -12 3 -24 1 -28 -5 -3 -5 -11 -10 -17 -10 -6 0 -4 8 5 18 36 39 0 94 -39 61 -18 -15 -15 -65 4 -61 8 1 11 -2 7 -8 -3 -5 -1 -10 4 -10 6 0 11 -12 12 -27 l1 -28 8 25 c5 17 8 19 9 8 1 -10 6 -18 12 -18 5 0 7 5 4 10 -3 6 1 10 9 10 18 0 21 -16 6 -25 -5 -3 -10 -11 -10 -17 0 -7 6 -6 15 2 8 7 15 25 15 41 0 18 8 34 23 44 l22 16 -21 17 c-12 9 -23 23 -25 30 -3 10 -7 10 -17 0z"/> <path d="M2632 1388 c-16 -16 -15 -63 1 -77 8 -6 16 -9 18 -7 2 2 3 -22 3 -55 -1 -58 -1 -59 17 -43 12 11 16 21 10 28 -5 6 -12 40 -16 76 -9 78 -16 95 -33 78z"/> <path d="M1097 1362 c-23 -25 -21 -59 3 -72 21 -11 44 -5 35 10 -3 4 2 10 10 14 21 8 19 43 -4 56 -25 13 -25 13 -44 -8z"/> <path d="M1792 1363 c5 -27 35 -40 53 -22 14 14 12 16 -20 26 -31 10 -36 9 -33 -4z"/> <path d="M2107 1362 c-21 -23 -22 -46 -2 -62 15 -13 39 -4 29 11 -3 5 0 8 8 7 8 -2 13 7 13 27 0 36 -24 44 -48 17z m40 -17 c0 -8 -4 -15 -8 -15 -4 0 -14 -3 -23 -6 -9 -3 -16 -1 -16 5 0 7 10 16 23 21 12 5 22 9 23 9 0 1 1 -6 1 -14z"/> <path d="M2878 1368 c-11 -8 -15 -18 -9 -26 6 -10 10 -10 20 2 19 22 10 40 -11 24z"/> <path d="M1477 1352 c-21 -23 -22 -56 -2 -72 33 -27 74 47 43 78 -16 16 -22 15 -41 -6z"/> <path d="M1552 1358 c-17 -17 -15 -49 6 -64 23 -17 52 9 52 48 0 23 -4 28 -23 28 -13 0 -28 -5 -35 -12z"/> <path d="M2021 1356 c-8 -10 -9 -16 -1 -21 5 -3 10 -1 10 4 0 6 7 11 15 11 13 0 20 -19 16 -43 -1 -5 3 -6 9 -2 23 14 3 65 -26 65 -6 0 -17 -6 -23 -14z"/> <path d="M1395 1338 c-21 -31 -19 -65 5 -78 13 -7 20 -21 20 -40 0 -23 3 -28 17 -23 11 4 14 3 9 -5 -11 -19 9 -14 27 6 36 40 3 100 -35 65 -10 -9 -18 -11 -18 -6 0 6 7 16 15 23 21 17 19 53 -5 67 -16 11 -21 9 -35 -9z"/> <path d="M2961 1347 c-1 -10 4 -28 11 -40 18 -33 21 -98 5 -91 -8 3 -11 17 -9 41 3 23 1 33 -6 29 -6 -4 -8 2 -4 16 5 21 4 22 -11 9 -9 -7 -17 -21 -17 -30 0 -22 37 -93 53 -102 22 -13 20 98 -2 146 -12 24 -20 33 -20 22z"/> <path d="M1855 1330 c-21 -24 -20 -25 23 -35 28 -6 32 -4 32 14 0 32 -34 45 -55 21z"/> <path d="M2837 1343 c-5 -8 -10 -66 -8 -91 2 -23 41 7 41 31 0 49 -19 83 -33 60z"/> <path d="M1317 1322 c-22 -25 -25 -63 -5 -76 13 -8 21 -7 29 1 10 10 7 15 -12 23 -24 10 -23 10 4 5 15 -3 27 -1 27 4 0 5 3 16 6 24 3 9 -2 20 -14 26 -15 8 -23 6 -35 -7z"/> <path d="M2407 1322 c-10 -10 -17 -28 -17 -39 0 -11 -9 -28 -20 -38 -24 -21 -26 -37 -5 -29 8 4 12 10 9 15 -3 5 2 9 10 9 10 0 13 -6 10 -17 -5 -15 -4 -16 5 -3 9 12 11 11 12 -10 1 -18 3 -20 6 -7 3 10 -3 27 -13 38 -9 10 -12 19 -6 19 6 0 14 -5 17 -10 10 -16 32 5 37 35 3 15 -1 30 -12 40 -15 14 -18 13 -33 -3z"/> <path d="M1767 1312 c-22 -24 -22 -45 1 -66 18 -15 20 -15 36 3 21 23 18 75 -5 79 -8 1 -23 -6 -32 -16z"/> <path d="M1920 1308 c0 -13 9 -29 19 -35 16 -10 22 -8 37 8 20 22 12 34 -28 44 -25 6 -28 4 -28 -17z"/> <path d="M2887 1323 c-4 -3 -7 -19 -7 -33 0 -15 -7 -33 -15 -40 -21 -17 -19 -30 6 -30 16 0 19 5 15 23 -3 12 -3 17 0 10 9 -19 34 -3 34 22 0 43 -16 66 -33 48z"/> <path d="M1226 1298 c-34 -48 -5 -98 35 -62 23 21 25 70 3 78 -22 8 -21 9 -38 -16z m36 -30 c-2 -10 -13 -18 -23 -18 -22 0 -24 6 -7 24 18 19 36 15 30 -6z"/> <path d="M2493 1305 c-26 -11 -29 -24 -10 -49 12 -16 14 -16 26 -3 7 9 11 26 9 39 -3 20 -6 22 -25 13z"/> <path d="M1160 1299 c0 -7 -6 -17 -14 -23 -26 -20 -29 -54 -6 -66 17 -9 24 -7 40 12 25 30 25 60 0 76 -14 9 -20 9 -20 1z"/> <path d="M1601 1286 c-25 -27 -25 -53 1 -69 23 -15 48 8 48 43 0 43 -22 55 -49 26z"/> <path d="M1070 1245 c0 -45 9 -56 27 -32 20 25 21 54 2 65 -28 18 -29 16 -29 -33z"/> <path d="M1517 1272 c-22 -25 -21 -59 2 -71 14 -8 22 -6 35 8 21 23 21 67 0 75 -21 8 -19 9 -37 -12z"/> <path d="M1840 1280 c0 -14 29 -32 40 -25 6 3 8 10 5 14 -7 12 -45 21 -45 11z"/> <path d="M1977 1262 c-20 -22 -22 -48 -5 -58 7 -4 8 -3 4 4 -4 7 -2 12 4 12 7 0 10 -7 6 -15 -7 -18 15 -20 32 -3 15 15 16 32 2 23 -5 -3 -10 -1 -10 5 0 7 -7 9 -16 6 -9 -3 -12 -2 -9 5 4 5 14 9 23 8 30 -3 35 1 22 16 -17 20 -33 19 -53 -3z"/> <path d="M2057 1273 c-14 -13 -6 -53 12 -62 14 -8 22 -6 35 8 23 25 20 48 -6 55 -29 7 -33 7 -41 -1z"/> <path d="M2530 1272 c0 -18 28 -45 38 -38 17 10 15 33 -4 40 -22 8 -34 8 -34 -2z"/> <path d="M1898 1250 c-23 -22 -23 -57 1 -69 14 -8 22 -6 35 8 36 40 1 98 -36 61z"/> <path d="M1344 1224 c-19 -35 -19 -36 0 -50 17 -12 22 -12 38 3 30 27 20 83 -16 83 -2 0 -11 -16 -22 -36z"/> <path d="M1812 1237 c-28 -29 -28 -53 -1 -67 39 -21 74 44 39 75 -15 13 -19 13 -38 -8z"/> <path d="M2130 1249 c0 -7 8 -18 18 -26 16 -13 16 -14 -4 -8 -25 6 -57 -25 -52 -51 9 -49 68 -37 68 14 0 14 7 34 16 43 16 17 15 19 -10 29 -34 13 -36 13 -36 -1z"/> <path d="M2460 1212 c0 -34 4 -51 10 -47 6 4 7 11 4 17 -4 7 -2 8 4 4 18 -11 15 36 -3 60 -13 17 -14 15 -15 -34z"/> <path d="M1727 1224 c-20 -26 -22 -61 -5 -66 7 -3 22 0 35 6 28 13 31 56 5 72 -14 9 -21 7 -35 -12z"/> <path d="M2512 1238 c-15 -15 -15 -43 -2 -69 10 -17 13 -18 25 -5 18 18 19 45 1 68 -10 13 -15 15 -24 6z"/> <path d="M1267 1222 c-23 -25 -22 -59 2 -71 15 -9 22 -6 36 15 32 49 0 98 -38 56z"/> <path d="M2197 1222 c-23 -25 -21 -41 3 -35 11 3 20 0 20 -6 0 -6 -7 -11 -15 -11 -17 0 -74 -59 -75 -76 0 -6 9 -19 19 -28 19 -17 21 -17 43 4 22 21 22 22 5 52 -16 28 -16 30 -1 24 20 -8 54 20 54 44 0 9 -8 24 -18 34 -18 15 -20 15 -35 -2z"/> <path d="M2917 1234 c-10 -10 -8 -66 2 -83 15 -24 30 -2 24 37 -6 40 -15 56 -26 46z"/> <path d="M1187 1212 c-8 -9 -17 -29 -21 -44 -5 -21 -2 -28 14 -33 28 -9 44 3 29 21 -6 7 -15 11 -20 8 -5 -3 -6 2 -2 12 5 14 8 14 23 -6 15 -20 18 -21 23 -5 11 27 8 39 -12 52 -15 10 -22 9 -34 -5z"/> <path d="M1647 1209 c-22 -25 -22 -49 1 -49 13 0 14 -2 3 -9 -10 -6 -10 -10 -1 -16 16 -10 50 24 50 51 0 34 -32 48 -53 23z"/> <path d="M1558 1195 c-23 -30 -23 -48 1 -69 18 -16 20 -16 35 6 35 50 0 111 -36 63z"/> <path d="M2260 1197 c0 -33 26 -54 48 -40 24 14 26 39 5 46 -10 2 -26 8 -35 12 -14 6 -18 2 -18 -18z"/> <path d="M1098 1196 c-21 -16 -24 -40 -4 -33 17 7 39 -16 28 -28 -4 -4 0 -6 8 -3 19 6 25 45 10 64 -15 17 -20 17 -42 0z"/> <path d="M2026 1191 c-20 -22 -21 -60 -1 -67 19 -8 47 14 38 29 -3 6 -1 7 5 3 8 -5 12 0 12 13 0 31 -34 45 -54 22z"/> <path d="M2673 1195 c-3 -9 -3 -29 1 -46 3 -16 2 -28 -2 -25 -4 2 -7 -18 -8 -45 0 -39 2 -46 13 -37 9 7 11 22 7 45 -5 25 -3 33 7 31 16 -3 23 33 15 68 -7 27 -24 32 -33 9z"/> <path d="M1477 1182 c-21 -23 -22 -56 -2 -72 13 -10 19 -10 35 5 11 10 20 13 20 8 0 -6 -7 -16 -15 -23 -21 -17 -19 -53 4 -67 16 -10 22 -8 35 12 22 33 20 62 -4 75 -11 6 -20 21 -20 33 0 22 -16 47 -30 47 -4 0 -14 -8 -23 -18z m43 -20 c0 -5 -9 -17 -20 -27 -20 -18 -20 -17 -20 8 0 20 5 27 20 27 11 0 20 -4 20 -8z"/> <path d="M1937 1179 c-21 -24 -22 -53 -2 -69 13 -10 19 -10 35 5 25 23 26 61 2 74 -14 8 -23 5 -35 -10z"/> <path d="M2737 1194 c-12 -12 -8 -44 6 -44 9 0 9 -2 -1 -8 -7 -5 -10 -16 -6 -26 5 -13 9 -14 20 -5 9 8 11 16 4 29 -5 9 -7 20 -4 23 3 3 2 13 -3 22 -5 8 -12 12 -16 9z"/> <path d="M2813 1187 c4 -10 7 -21 7 -23 0 -3 4 -3 8 0 4 2 6 -10 5 -27 -4 -36 9 -63 26 -53 15 10 14 59 -1 77 -7 8 -22 22 -32 29 -18 14 -19 13 -13 -3z"/> <path d="M2787 1184 c-10 -10 -9 -66 2 -83 13 -20 31 -4 31 28 0 30 -21 66 -33 55z"/> <path d="M1386 1158 c-21 -29 -20 -41 2 -62 18 -15 20 -15 34 1 22 26 28 71 11 77 -24 10 -31 7 -47 -16z"/> <path d="M1852 1168 c-19 -19 -15 -47 8 -45 11 1 20 6 20 11 0 5 3 6 6 3 12 -11 -17 -36 -34 -31 -14 5 -14 3 1 -6 35 -23 75 38 45 68 -7 7 -17 12 -23 12 -6 0 -16 -5 -23 -12z"/> <path d="M2877 1174 c-7 -7 3 -73 15 -97 5 -10 13 -15 19 -12 12 8 12 65 -1 65 -5 0 -9 6 -7 13 1 6 -4 11 -12 9 -12 -3 -12 0 -1 12 11 15 1 23 -13 10z"/> <path d="M990 1143 l-25 -26 28 5 c15 3 30 2 32 -2 9 -15 -17 -70 -34 -70 -9 0 -25 -10 -35 -22 -17 -19 -19 -20 -28 -4 -5 9 -14 13 -20 10 -7 -4 3 -21 25 -43 20 -20 56 -57 80 -83 25 -26 48 -44 52 -40 3 4 11 -1 16 -11 15 -25 36 -21 69 16 32 35 39 74 14 84 -25 9 -37 -10 -23 -40 9 -21 9 -30 -1 -42 -16 -20 -34 -19 -26 1 3 8 2 12 -4 9 -5 -3 -15 -1 -22 4 -7 6 -29 24 -49 41 -20 16 -41 30 -45 30 -5 0 -14 12 -21 26 -14 30 -7 59 11 45 11 -9 83 -7 93 3 3 3 8 25 10 49 4 37 2 48 -18 66 -30 28 -49 26 -79 -6z"/> <path d="M1306 1145 c-21 -31 -20 -61 0 -69 37 -14 71 53 42 82 -17 17 -24 15 -42 -13z"/> <path d="M1772 1158 c-7 -7 -12 -8 -12 -4 0 5 -7 3 -15 -4 -11 -9 -19 -9 -28 -2 -10 9 -17 6 -30 -8 -17 -21 -15 -24 16 -21 9 1 17 -4 17 -13 0 -9 -4 -16 -10 -16 -5 0 -10 4 -10 8 0 5 -7 9 -15 9 -20 0 -19 -33 1 -41 22 -9 54 21 54 50 0 13 4 25 9 28 4 3 6 -6 3 -21 -7 -37 24 -60 50 -36 10 9 18 26 18 38 0 20 -17 45 -30 45 -3 0 -11 -5 -18 -12z"/> <path d="M2316 1148 c-21 -29 -20 -41 2 -62 18 -15 20 -15 34 1 28 33 30 44 12 64 -22 24 -29 24 -48 -3z"/> <path d="M2401 1157 c-17 -17 -13 -55 8 -67 11 -5 21 -20 23 -32 2 -13 5 5 6 39 2 62 -12 85 -37 60z"/> <path d="M2236 1141 c-22 -24 -20 -58 3 -70 23 -13 51 14 51 47 0 32 -33 46 -54 23z"/> <path d="M1224 1129 c-19 -22 -19 -22 9 -15 29 7 34 2 15 -18 -7 -7 -20 -11 -30 -8 -24 6 -23 -15 1 -27 14 -8 22 -7 30 3 6 7 7 16 3 20 -4 4 -1 6 7 4 19 -4 26 29 11 47 -17 20 -23 19 -46 -6z"/> <path d="M2470 1130 c0 -12 5 -30 11 -41 8 -16 13 -18 25 -8 15 13 19 59 5 59 -5 0 -16 3 -25 6 -12 4 -16 0 -16 -16z"/> <path d="M1602 1119 c-27 -25 -28 -55 -3 -69 38 -20 71 51 38 79 -10 8 -19 6 -35 -10z m28 -25 c0 -9 -5 -12 -12 -8 -9 5 -9 2 1 -9 7 -9 9 -17 3 -17 -5 0 -15 6 -21 14 -10 11 -8 17 6 25 23 14 23 14 23 -5z"/> <path d="M2065 1121 c-9 -11 -15 -29 -12 -43 l4 -23 8 23 c8 24 25 30 25 8 0 -8 -8 -17 -17 -20 -15 -6 -15 -8 -3 -16 20 -12 50 16 50 46 0 34 -33 49 -55 25z"/> <path d="M2937 1133 c-13 -12 -7 -48 13 -88 11 -22 20 -35 20 -31 0 5 6 4 13 -2 9 -8 13 3 15 47 2 43 -1 61 -13 71 -10 8 -15 9 -15 1 0 -6 3 -11 8 -11 4 0 7 -17 7 -38 1 -25 -4 -39 -12 -39 -8 0 -11 8 -7 24 11 42 -9 87 -29 66z"/> <path d="M1142 1117 c-6 -7 -15 -25 -21 -40 -9 -22 -7 -28 9 -37 15 -8 24 -6 40 7 24 21 27 68 4 77 -21 8 -20 8 -32 -7z"/> <path d="M2530 1105 c0 -12 7 -28 15 -35 12 -10 16 -8 24 11 10 29 8 35 -19 42 -16 4 -20 0 -20 -18z"/> <path d="M1977 1102 c-20 -22 -22 -43 -5 -60 9 -9 9 -12 -3 -12 -22 0 -51 -35 -47 -56 1 -9 10 -22 20 -27 25 -16 50 9 46 47 -2 22 2 34 16 41 30 16 43 42 30 63 -16 24 -37 26 -57 4z m43 -43 c0 -14 -34 -19 -42 -7 -11 18 -10 28 3 28 5 0 7 -4 4 -10 -3 -5 -1 -10 4 -10 6 0 11 8 11 18 0 14 2 15 10 2 5 -8 10 -18 10 -21z"/> <path d="M707 1103 c-15 -14 -5 -40 33 -91 40 -52 48 -68 31 -58 -5 3 -11 -8 -13 -24 -3 -17 -1 -30 3 -30 4 0 7 -15 7 -32 0 -18 3 -53 7 -78 4 -25 8 -52 9 -60 1 -9 13 -30 26 -49 14 -18 24 -37 22 -42 -1 -5 2 -9 7 -9 5 0 11 -9 14 -20 5 -21 27 -28 27 -8 0 6 -16 40 -36 75 -32 58 -36 73 -45 185 -9 116 -9 122 11 144 l22 22 -22 7 c-11 4 -35 22 -52 41 -32 35 -40 39 -51 27z"/> <path d="M1438 1092 c-26 -30 -29 -61 -6 -73 23 -12 36 1 50 49 9 31 -23 49 -44 24z"/> <path d="M1900 1095 c-10 -12 -7 -15 14 -21 14 -3 26 -12 26 -20 0 -17 -36 -19 -46 -2 -5 8 -2 9 10 5 10 -4 15 -3 11 3 -11 17 -35 11 -35 -10 0 -30 34 -43 54 -21 22 24 20 58 -3 70 -14 8 -22 7 -31 -4z"/> <path d="M894 1078 c2 -7 -10 -22 -25 -34 -16 -11 -26 -24 -22 -27 12 -12 23 -7 55 23 21 21 26 30 15 30 -8 0 -18 5 -20 10 -3 6 -4 5 -3 -2z"/> <path d="M1347 1072 c-23 -25 -21 -59 2 -71 15 -9 22 -6 35 14 20 31 20 61 0 69 -21 8 -19 9 -37 -12z"/> <path d="M1812 1078 c-17 -17 -15 -67 3 -75 19 -7 55 24 55 47 0 18 -19 40 -35 40 -6 0 -16 -5 -23 -12z"/> <path d="M2362 1078 c-18 -18 -15 -65 4 -72 20 -8 54 20 54 44 0 18 -19 40 -35 40 -6 0 -16 -5 -23 -12z"/> <path d="M2448 1055 c-5 -40 12 -64 30 -42 13 15 2 69 -15 74 -6 2 -13 -12 -15 -32z"/> <path d="M1261 1053 c-27 -33 -27 -60 0 -68 42 -14 77 60 40 82 -17 11 -23 9 -40 -14z"/> <path d="M1727 1062 c-23 -25 -21 -59 2 -71 14 -8 22 -7 31 4 10 12 9 15 -3 15 -9 0 -19 4 -22 10 -4 7 3 7 19 0 23 -8 26 -7 26 13 0 22 -16 47 -30 47 -4 0 -14 -8 -23 -18z"/> <path d="M2277 1062 c-23 -25 -21 -49 4 -62 15 -9 24 -8 35 1 19 16 18 65 -2 73 -21 8 -19 9 -37 -12z"/> <path d="M2507 1073 c-12 -11 -8 -58 7 -79 14 -18 15 -18 21 9 12 46 -7 92 -28 70z"/> <path d="M2868 1074 c-9 -16 -8 -83 2 -89 15 -9 24 17 9 26 -12 8 -12 10 0 18 11 7 12 15 5 32 -6 13 -13 19 -16 13z"/> <path d="M1646 1051 c-37 -41 -5 -101 35 -65 24 22 24 56 0 71 -15 10 -22 9 -35 -6z"/> <path d="M2190 1055 c-7 -8 -10 -24 -7 -34 3 -12 -4 -28 -19 -42 -27 -26 -31 -61 -9 -79 13 -10 19 -10 35 5 25 22 25 42 3 68 -17 19 -17 19 5 13 28 -9 52 8 52 38 0 41 -36 59 -60 31z"/> <path d="M2567 1063 c-13 -12 -7 -71 8 -83 9 -7 14 -19 11 -27 -3 -7 -1 -23 3 -35 7 -17 9 -1 10 54 0 50 -4 80 -13 87 -7 6 -16 8 -19 4z"/> <path d="M2700 1058 c0 -22 17 -41 29 -34 16 10 13 33 -5 40 -22 8 -24 8 -24 -6z"/> <path d="M2917 1063 c-13 -12 -7 -40 8 -40 8 0 15 5 15 11 0 17 -16 37 -23 29z"/> <path d="M1177 1039 c-21 -24 -22 -68 -2 -76 21 -8 55 25 55 53 0 34 -32 48 -53 23z"/> <path d="M2106 1041 c-18 -20 -19 -52 -1 -52 5 0 11 5 14 12 2 6 -1 9 -6 6 -5 -3 -10 0 -10 8 0 12 13 14 45 6 1 -1 -7 -11 -18 -23 -22 -24 -10 -38 15 -18 18 15 20 51 3 68 -16 16 -22 15 -42 -7z"/> <path d="M1557 1032 c-22 -25 -21 -59 2 -71 35 -19 69 47 39 77 -16 16 -22 15 -41 -6z"/> <path d="M2030 1032 c-22 -24 -22 -60 -1 -72 35 -18 69 48 39 78 -15 15 -20 15 -38 -6z m31 -11 c-8 -5 -10 -14 -6 -21 4 -7 2 -16 -6 -21 -19 -12 -29 -11 -29 2 0 5 5 7 12 3 7 -5 9 -2 5 8 -6 16 10 38 28 38 5 0 4 -4 -4 -9z"/> <path d="M2750 1043 c0 -5 5 -15 10 -23 7 -11 12 -12 21 -3 6 6 8 16 5 22 -8 12 -36 15 -36 4z"/> <path d="M1090 1025 c-10 -12 -7 -21 14 -46 26 -31 29 -30 39 17 6 29 -35 51 -53 29z"/> <path d="M2677 1033 c-19 -18 4 -100 24 -88 10 7 12 55 3 79 -7 17 -16 20 -27 9z"/> <path d="M2817 1031 c-16 -6 -16 -9 -3 -26 13 -18 15 -19 21 -3 10 25 3 36 -18 29z"/> <path d="M1470 1010 c-26 -49 3 -88 40 -55 19 17 28 64 13 66 -5 0 -16 2 -26 4 -9 2 -22 -5 -27 -15z"/> <path d="M2730 1015 c-10 -12 -11 -24 -1 -56 14 -47 31 -43 31 9 0 50 -12 68 -30 47z"/> <path d="M1386 995 c-21 -32 -20 -52 3 -64 35 -19 69 47 39 77 -17 17 -24 15 -42 -13z"/> <path d="M1856 1001 c-22 -24 -20 -58 3 -70 23 -13 51 14 51 47 0 32 -33 46 -54 23z"/> <path d="M2407 1002 c-23 -25 -21 -54 3 -70 19 -12 20 -10 20 38 0 27 -2 50 -3 50 -2 0 -11 -8 -20 -18z"/> <path d="M1777 992 c-18 -19 -24 -78 -8 -68 5 4 11 1 13 -6 3 -7 10 -8 17 -4 11 7 11 10 0 18 -11 6 -9 8 6 6 27 -4 32 33 7 55 -18 16 -20 16 -35 -1z"/> <path d="M2327 992 c-10 -10 -17 -28 -17 -40 0 -23 35 -49 44 -33 3 5 -1 11 -9 15 -8 3 -15 13 -15 23 0 15 3 15 18 -5 10 -13 21 -20 25 -16 13 13 7 41 -11 58 -18 15 -20 15 -35 -2z"/> <path d="M2787 1004 c-9 -9 -9 -56 -1 -78 9 -23 34 -1 34 28 0 26 -22 60 -33 50z"/> <path d="M1301 974 c-26 -33 -26 -50 -2 -63 14 -8 23 -5 40 13 26 28 27 52 2 66 -16 8 -23 5 -40 -16z"/> <path d="M2236 981 c-22 -24 -20 -54 5 -69 27 -17 49 0 49 39 0 38 -31 56 -54 30z m38 -20 c3 -5 -1 -15 -10 -22 -13 -10 -17 -10 -24 1 -5 8 -6 18 -4 22 7 11 31 10 38 -1z"/> <path d="M2442 935 c0 -71 11 -110 29 -100 14 9 11 72 -6 88 -8 8 -12 17 -10 19 2 2 0 17 -4 34 -7 23 -9 15 -9 -41z"/> <path d="M2477 993 c-12 -11 -7 -60 6 -72 17 -14 27 -4 27 25 0 42 -16 65 -33 47z"/> <path d="M2837 994 c-10 -10 -9 -66 2 -83 13 -20 31 -4 31 28 0 30 -21 66 -33 55z"/> <path d="M1051 958 c27 -25 69 -45 69 -32 0 4 -90 64 -97 64 -3 0 10 -14 28 -32z"/> <path d="M1687 972 c-22 -25 -21 -59 2 -71 35 -19 69 47 39 77 -16 16 -22 15 -41 -6z"/> <path d="M2537 983 c-10 -9 -8 -55 2 -72 12 -19 31 -5 31 24 0 43 -16 66 -33 48z"/> <path d="M810 972 c0 -4 10 -8 22 -9 31 -3 39 -23 22 -56 -9 -16 -13 -31 -10 -34 6 -6 36 52 36 71 0 17 -5 21 -42 30 -16 3 -28 3 -28 -2z"/> <path d="M1217 962 c-24 -26 -26 -65 -4 -70 41 -8 79 67 41 82 -21 8 -19 9 -37 -12z"/> <path d="M1607 962 c-21 -23 -22 -71 -2 -79 19 -7 55 24 55 47 0 9 -8 24 -18 34 -18 15 -20 15 -35 -2z"/> <path d="M2887 973 c-12 -11 -8 -58 7 -79 14 -18 15 -18 21 9 12 46 -7 92 -28 70z"/> <path d="M2948 969 c-22 -12 -23 -58 -4 -85 14 -18 15 -18 21 -1 4 9 4 33 0 53 -5 30 -4 34 7 23 8 -7 12 -26 10 -44 -2 -18 1 -36 8 -40 15 -9 11 87 -4 97 -14 10 -17 9 -38 -3z"/> <path d="M2067 952 c-21 -23 -22 -46 -1 -63 24 -20 49 1 49 42 0 40 -22 50 -48 21z"/> <path d="M1516 942 c-33 -37 0 -97 36 -65 21 19 23 54 6 71 -16 16 -22 15 -42 -6z"/> <path d="M1987 942 c-22 -25 -21 -59 2 -71 35 -19 69 47 39 77 -16 16 -22 15 -41 -6z"/> <path d="M2660 911 c0 -46 2 -52 15 -41 9 8 12 22 8 43 -10 55 -23 54 -23 -2z"/> <path d="M2707 944 c-11 -11 -8 -74 4 -74 5 0 7 -5 3 -11 -4 -7 -1 -10 7 -7 8 2 15 18 17 34 3 30 -18 70 -31 58z"/> <path d="M1427 922 c-39 -43 1 -95 44 -56 22 20 25 44 7 62 -17 17 -32 15 -51 -6z"/> <path d="M1897 922 c-10 -11 -15 -26 -11 -36 4 -11 -2 -26 -16 -41 -12 -13 -20 -31 -18 -42 4 -15 7 -14 18 10 7 15 17 27 22 27 5 0 6 5 2 12 -5 8 -2 9 11 4 22 -8 56 20 48 40 -4 10 -9 11 -18 4 -8 -7 -12 -5 -12 5 0 7 3 13 6 12 3 -1 7 3 9 8 6 18 -24 16 -41 -3z"/> <path d="M1347 912 c-27 -31 -30 -60 -7 -72 18 -9 25 -8 41 6 24 22 25 60 0 73 -14 8 -22 6 -34 -7z"/> <path d="M1817 912 c-22 -25 -21 -59 2 -71 35 -19 69 47 39 77 -16 16 -22 15 -41 -6z"/> <path d="M2367 912 c-23 -25 -21 -49 4 -63 18 -9 25 -8 40 7 16 16 17 23 6 43 -16 32 -30 36 -50 13z m33 -32 c10 -18 8 -20 -17 -20 -22 0 -25 2 -13 10 13 9 13 10 0 10 -13 0 -13 1 0 10 19 13 18 13 30 -10z"/> <path d="M2757 923 c-19 -18 4 -100 24 -88 10 7 12 55 3 79 -7 17 -16 20 -27 9z"/> <path d="M2287 905 c-22 -16 -19 -53 5 -68 34 -22 66 41 36 71 -15 15 -19 15 -41 -3z"/> <path d="M2811 907 c-6 -8 -9 -21 -7 -28 2 -8 7 -27 10 -42 9 -38 26 -24 26 21 0 48 -12 68 -29 49z"/> <path d="M1258 893 c-26 -30 -29 -62 -6 -74 15 -8 24 -7 39 7 23 21 25 69 3 78 -21 8 -19 9 -36 -11z"/> <path d="M1732 898 c-18 -18 -15 -65 4 -72 20 -8 54 20 54 44 0 18 -19 40 -35 40 -6 0 -16 -5 -23 -12z"/> <path d="M2196 891 c-21 -23 -18 -49 6 -65 14 -8 22 -6 39 11 21 21 21 23 5 47 -20 31 -27 32 -50 7z"/> <path d="M2507 903 c-12 -11 -7 -60 6 -72 17 -14 27 -4 27 25 0 42 -16 65 -33 47z"/> <path d="M1647 882 c-22 -25 -21 -59 2 -71 35 -19 69 47 39 77 -16 16 -22 15 -41 -6z"/> <path d="M2116 881 c-21 -23 -20 -51 2 -67 14 -10 20 -10 35 3 23 21 22 60 -2 72 -14 8 -22 6 -35 -8z"/> <path d="M2565 890 c-4 -6 -1 -17 5 -25 10 -12 10 -15 0 -15 -6 0 -10 -8 -8 -17 6 -31 33 -21 36 13 3 33 -20 64 -33 44z"/> <path d="M2867 893 c-10 -9 -8 -65 2 -81 6 -11 10 -10 19 1 8 9 8 24 1 50 -11 39 -12 41 -22 30z"/> <path d="M1169 874 c-20 -25 -21 -57 -3 -71 15 -11 21 -10 36 4 22 20 24 69 2 77 -21 8 -20 8 -35 -10z"/> <path d="M2028 865 c-16 -22 -15 -35 4 -35 5 0 7 4 4 9 -3 5 1 11 9 15 10 4 15 -1 15 -14 0 -14 -7 -20 -22 -20 -21 0 -21 -1 -5 -17 16 -16 18 -16 37 3 17 16 19 25 11 46 -13 35 -33 40 -53 13z"/> <path d="M2917 884 c-10 -11 -8 -67 3 -84 9 -13 11 -13 20 0 14 22 -7 99 -23 84z"/> <path d="M1556 861 c-34 -38 8 -88 45 -55 24 22 24 51 0 64 -25 13 -25 13 -45 -9z"/> <path d="M1476 851 c-22 -24 -20 -58 3 -70 23 -13 51 14 51 47 0 32 -33 46 -54 23z"/> <path d="M1947 852 c-19 -20 -23 -61 -7 -63 6 -1 16 -2 23 -3 32 -5 51 46 25 72 -16 16 -22 15 -41 -6z"/> <path d="M2677 864 c-18 -18 3 -101 23 -89 4 3 6 -12 4 -32 -5 -41 7 -70 25 -59 16 10 13 57 -4 80 -8 11 -15 32 -15 46 0 29 -22 65 -33 54z"/> <path d="M2967 864 c-10 -10 -9 -56 2 -73 5 -7 14 -10 21 -6 9 6 9 9 -1 16 -10 6 -11 9 -1 9 6 0 12 6 12 13 0 19 -24 49 -33 41z"/> <path d="M846 845 c10 -8 24 -14 29 -15 6 0 3 5 -5 11 -11 7 -6 8 20 3 19 -3 32 -3 28 1 -3 4 -26 9 -49 11 -39 4 -41 3 -23 -11z"/> <path d="M1039 833 c-1 -10 -1 -24 0 -32 2 -7 -2 -10 -8 -7 -17 11 -31 -26 -15 -41 17 -17 33 -9 32 15 -1 9 2 32 6 50 5 21 4 32 -3 32 -6 0 -12 -8 -12 -17z"/> <path d="M1388 833 c-34 -41 -9 -86 32 -60 24 14 27 62 4 71 -21 8 -19 9 -36 -11z"/> <path d="M2430 807 c0 -35 4 -47 13 -45 18 7 20 50 3 73 -14 19 -15 17 -16 -28z"/> <path d="M2735 842 c-18 -12 -15 -30 5 -35 15 -4 20 0 20 13 0 22 -12 32 -25 22z"/> <path d="M1070 808 c0 -18 5 -40 11 -48 9 -12 10 -11 4 5 -3 11 -3 16 1 12 10 -10 44 23 44 42 0 14 -2 14 -10 1 -9 -13 -12 -13 -24 3 -19 25 -26 21 -26 -15z"/> <path d="M1777 822 c-22 -24 -22 -51 1 -68 34 -25 72 42 40 74 -16 16 -22 15 -41 -6z"/> <path d="M1896 832 c-8 -13 5 -53 15 -46 12 7 12 41 0 49 -5 3 -12 2 -15 -3z"/> <path d="M2246 821 c-21 -23 -20 -44 2 -65 18 -15 20 -15 35 2 22 25 21 54 -2 69 -15 10 -22 9 -35 -6z"/> <path d="M2326 827 c-14 -10 -15 -18 -7 -38 13 -35 35 -42 57 -18 14 16 15 24 6 44 -13 28 -29 31 -56 12z"/> <path d="M2407 833 c-11 -10 -8 -53 3 -53 6 0 10 14 10 30 0 31 -2 35 -13 23z"/> <path d="M2477 833 c-11 -10 -8 -52 4 -74 8 -16 13 -18 24 -9 8 6 12 17 10 23 -2 7 -6 24 -9 40 -6 26 -16 34 -29 20z"/> <path d="M2787 834 c-10 -10 -8 -66 2 -83 12 -19 31 -5 31 22 -1 28 -24 70 -33 61z"/> <path d="M1709 823 c-1 -5 -1 -11 0 -15 0 -5 -5 -7 -11 -5 -21 4 -22 -59 -2 -67 22 -8 54 20 54 48 0 20 -39 56 -41 39z"/> <path d="M1211 796 c-25 -26 -27 -49 -5 -66 12 -11 18 -10 31 3 15 15 14 17 -10 26 -15 6 -27 13 -27 16 0 4 4 4 9 1 5 -3 12 1 15 10 3 8 11 12 17 9 6 -4 8 -13 5 -21 -3 -7 -1 -16 3 -19 8 -5 21 17 21 35 0 5 -8 14 -19 19 -14 8 -23 5 -40 -13z"/> <path d="M2156 801 c-12 -13 -14 -21 -6 -26 5 -3 8 -10 5 -15 -3 -5 3 -14 13 -19 35 -19 68 39 40 67 -17 17 -32 15 -52 -7z"/> <path d="M2537 813 c-10 -9 -8 -55 2 -72 12 -19 31 -5 31 24 0 43 -16 66 -33 48z"/> <path d="M2835 797 c-8 -32 9 -82 25 -72 15 9 12 58 -4 81 -14 18 -15 18 -21 -9z"/> <path d="M1607 792 c-39 -43 3 -97 44 -56 16 16 17 23 6 43 -16 32 -30 36 -50 13z"/> <path d="M2082 794 c-23 -16 -29 -48 -12 -59 8 -5 14 12 12 35 0 3 9 7 21 7 17 2 18 0 7 -7 -8 -5 -11 -12 -7 -16 4 -4 -1 -13 -11 -20 -15 -12 -15 -13 -1 -14 26 0 48 32 39 56 -12 31 -24 35 -48 18z"/> <path d="M893 792 c5 -6 -8 -13 -33 -17 -22 -4 -38 -11 -35 -15 5 -9 63 6 78 20 5 4 3 11 -4 15 -7 5 -10 4 -6 -3z"/> <path d="M1139 793 c-1 -4 -1 -12 0 -16 1 -5 -3 -6 -8 -3 -11 7 -35 -20 -27 -33 3 -5 16 -7 28 -3 14 3 19 2 14 -6 -9 -16 7 -15 22 0 18 18 14 46 -8 58 -11 6 -21 7 -21 3z"/> <path d="M1280 779 c0 -34 27 -45 51 -23 19 17 26 44 12 44 -4 0 -18 -10 -31 -22 -14 -13 -23 -18 -19 -13 3 6 2 17 -4 25 -6 11 -9 9 -9 -11z"/> <path d="M1842 767 c-37 -38 -41 -71 -12 -87 41 -22 70 47 33 77 -17 13 -16 14 4 8 25 -7 38 8 20 24 -10 8 -21 3 -45 -22z"/> <path d="M1996 781 c-22 -24 -20 -58 3 -70 39 -21 70 52 32 76 -15 10 -22 9 -35 -6z"/> <path d="M2584 786 c-3 -9 -4 -25 -1 -36 3 -11 0 -18 -6 -17 -14 2 -21 -36 -13 -69 12 -45 23 -24 30 52 7 75 3 103 -10 70z"/> <path d="M2730 788 c0 -7 4 -19 9 -26 6 -10 11 -10 21 3 12 14 11 18 -1 26 -20 12 -29 11 -29 -3z"/> <path d="M2883 784 c-3 -10 -1 -31 6 -48 7 -17 16 -50 21 -74 8 -49 16 -60 32 -44 15 15 -2 88 -20 84 -9 -1 -10 6 -6 23 12 50 -17 101 -33 59z"/> <path d="M1517 772 c-23 -25 -21 -49 4 -62 38 -21 78 37 47 68 -17 17 -32 15 -51 -6z m53 -23 c0 -6 -4 -7 -10 -4 -5 3 -10 1 -10 -5 0 -6 -4 -9 -9 -6 -5 4 -12 0 -14 -6 -4 -9 -6 -9 -6 -1 -1 16 29 44 40 38 5 -4 9 -11 9 -16z"/> <path d="M2650 756 c0 -49 9 -69 26 -56 7 7 11 17 9 23 -2 7 -6 24 -9 40 -9 38 -26 34 -26 -7z"/> <path d="M2936 773 c-8 -25 9 -79 23 -75 7 1 9 -6 5 -23 -8 -33 3 -78 19 -72 17 5 17 47 1 79 -8 15 -14 38 -14 52 0 49 -23 75 -34 39z"/> <path d="M1427 762 c-24 -27 -21 -58 5 -65 45 -12 79 51 39 73 -25 13 -25 13 -44 -8z m40 -39 c-8 -8 -47 7 -47 18 0 6 4 8 9 4 5 -3 13 0 17 6 5 8 10 6 16 -5 6 -10 8 -20 5 -23z"/> <path d="M1906 761 c-22 -24 -20 -31 10 -31 15 0 23 -4 19 -11 -4 -6 -13 -8 -21 -5 -8 3 -14 1 -14 -3 0 -5 8 -12 17 -15 23 -9 48 18 48 52 0 21 -5 27 -22 28 -12 1 -29 -6 -37 -15z"/> <path d="M2378 756 c-23 -17 -23 -39 0 -59 23 -21 32 -21 32 -1 0 9 5 12 12 8 7 -5 8 -3 2 7 -4 8 -8 23 -9 33 0 24 -15 29 -37 12z"/> <path d="M2985 758 c-3 -7 -1 -26 4 -43 9 -29 9 -29 10 13 1 41 -5 54 -14 30z"/> <path d="M1337 742 c-23 -25 -21 -49 4 -62 16 -9 25 -8 40 6 23 21 25 60 3 68 -24 9 -29 8 -47 -12z"/> <path d="M2292 748 c-18 -18 -14 -56 7 -67 14 -8 22 -6 35 8 21 24 20 48 -3 61 -24 13 -24 13 -39 -2z"/> <path d="M2445 748 c-8 -21 10 -73 26 -73 18 0 24 38 9 64 -12 24 -28 27 -35 9z"/> <path d="M2760 745 c-15 -18 -2 -76 18 -83 16 -5 16 25 0 31 -10 4 -10 6 0 6 14 1 17 31 2 31 -5 0 -7 7 -4 15 8 19 0 19 -16 0z"/> <path d="M1742 738 c-18 -18 -15 -59 6 -74 14 -10 20 -10 35 3 22 21 22 46 -1 66 -22 20 -25 20 -40 5z"/> <path d="M2209 734 c-18 -18 -14 -60 7 -68 39 -15 67 33 38 65 -21 23 -25 23 -45 3z"/> <path d="M1247 722 c-23 -25 -21 -49 3 -62 27 -14 63 18 58 52 -4 29 -38 35 -61 10z"/> <path d="M1656 721 c-22 -24 -20 -58 3 -71 25 -13 51 11 51 45 0 34 -32 50 -54 26z m40 -33 c1 -10 -7 -18 -22 -21 -16 -3 -24 0 -24 9 0 8 6 13 13 12 6 -2 11 3 9 10 -1 8 3 12 9 10 7 -2 13 -11 15 -20z"/> <path d="M2125 720 c-19 -21 -14 -50 10 -50 8 0 14 -3 14 -7 -4 -22 3 -25 16 -7 34 45 -3 105 -40 64z"/> <path d="M2500 713 c0 -16 6 -38 14 -49 13 -17 15 -17 21 -2 11 29 1 73 -17 76 -14 3 -18 -3 -18 -25z"/> <path d="M2817 734 c-8 -13 -4 -81 5 -90 10 -10 28 6 28 24 -1 28 -26 77 -33 66z"/> <path d="M1176 723 c-12 -12 -6 -25 8 -20 10 4 18 -4 25 -21 l9 -27 1 27 c1 27 -29 55 -43 41z"/> <path d="M2864 706 c-8 -32 7 -82 23 -79 6 1 9 -6 6 -17 -3 -11 -2 -36 2 -56 5 -31 8 -35 20 -23 11 11 12 23 4 54 -6 22 -15 58 -20 79 -16 64 -26 76 -35 42z"/> <path d="M998 679 c-43 -21 -78 -44 -78 -51 0 -6 -7 -20 -17 -30 -13 -15 -14 -18 -2 -18 8 0 43 -47 78 -104 71 -118 71 -119 126 -136 22 -7 65 -21 95 -31 33 -11 57 -14 60 -9 4 6 13 5 23 -3 15 -11 14 -14 -14 -30 -25 -14 -30 -14 -26 -3 4 11 -8 20 -41 31 -26 9 -64 23 -85 30 -21 8 -45 11 -53 8 -8 -3 -14 1 -14 8 0 7 -2 10 -5 7 -4 -3 -3 -17 1 -32 4 -17 13 -26 26 -26 17 0 18 2 8 15 -28 33 -1 21 65 -31 39 -29 73 -54 77 -54 4 0 35 -13 68 -29 34 -17 67 -28 75 -25 8 4 15 -3 17 -16 2 -15 24 -35 66 -60 62 -38 69 -57 15 -44 -15 3 -37 12 -48 19 -11 6 -44 18 -72 24 -29 7 -51 17 -48 21 5 8 -25 22 -41 19 -26 -4 -45 2 -38 14 6 9 4 9 -8 -1 -11 -9 -18 -10 -23 -2 -10 17 3 28 29 23 13 -3 27 0 30 6 5 7 -5 11 -26 12 -81 2 -114 0 -129 -6 -10 -3 -20 -1 -24 5 -4 7 2 14 14 17 12 3 21 9 21 14 0 12 -7 11 -30 -1 -18 -10 -18 -8 -4 17 18 35 18 53 0 53 -18 0 -26 -22 -26 -71 0 -30 4 -39 18 -39 15 0 15 -2 2 -11 -13 -9 -13 -10 0 -7 8 3 26 -1 39 -8 16 -9 29 -10 37 -3 7 6 15 4 24 -6 7 -8 16 -13 20 -10 4 3 13 -2 20 -10 11 -14 83 -32 103 -27 4 1 7 -2 7 -7 0 -5 44 -23 98 -41 53 -18 102 -35 109 -37 14 -5 13 68 0 78 -5 4 6 20 24 37 l33 31 24 -20 c14 -10 31 -19 39 -19 11 0 7 -14 -16 -55 -17 -30 -27 -55 -21 -55 6 0 16 11 22 25 6 14 15 25 20 25 5 0 7 4 3 9 -8 14 15 25 27 13 6 -6 6 -12 -1 -16 -14 -9 -15 -56 -1 -56 6 0 10 7 10 15 0 8 6 15 13 15 8 0 7 4 -3 11 -12 9 -11 10 8 6 25 -6 20 9 -10 31 -10 7 -18 19 -18 27 0 8 -12 21 -27 29 -16 8 -22 15 -15 16 6 0 12 5 12 11 0 6 -8 9 -19 6 -10 -2 -26 0 -36 6 -13 7 -16 6 -11 -2 16 -25 -12 -8 -49 29 -31 31 -37 43 -26 49 8 5 9 11 3 15 -6 3 -12 1 -14 -5 -2 -6 -51 36 -110 93 -96 93 -107 108 -118 156 -6 28 -15 52 -19 52 -4 0 -13 17 -20 38 -21 61 -85 123 -128 122 -10 -1 -53 -19 -95 -41z m112 -16 c0 -11 4 -10 18 7 l17 21 21 -23 c12 -13 29 -46 39 -75 10 -29 22 -50 27 -47 4 3 8 -4 8 -16 0 -14 -4 -19 -12 -15 -7 4 -5 0 5 -8 18 -15 24 -32 7 -22 -17 11 -11 -7 8 -21 15 -11 14 -13 -12 -10 -31 3 -60 32 -49 49 4 6 1 7 -7 2 -7 -4 -16 -2 -21 6 -6 11 -12 10 -28 -5 -27 -24 -27 -58 -1 -81 12 -10 19 -24 16 -31 -3 -7 1 -17 8 -23 24 -20 28 29 6 65 -21 32 -25 54 -12 54 10 0 42 -58 42 -76 0 -9 5 -12 13 -8 6 4 4 -1 -5 -12 -9 -11 -21 -29 -25 -42 l-8 -22 -42 21 c-23 11 -45 29 -48 40 -4 11 -17 31 -31 46 -13 14 -24 30 -24 35 0 9 -2 13 -50 69 -16 20 -30 42 -30 48 0 10 53 48 109 78 28 15 42 9 35 -15 -5 -14 -4 -14 4 -3 6 8 8 21 4 29 -3 10 -1 13 6 8 7 -4 12 -14 12 -23z m185 -254 c3 -4 -10 -15 -30 -25 -67 -31 -61 -53 8 -27 46 17 46 17 66 -8 11 -13 20 -29 21 -35 0 -15 -25 -36 -33 -28 -3 3 -3 -3 0 -15 12 -45 63 -51 63 -7 -1 20 -1 20 -14 -3 -9 -15 -16 -20 -20 -12 -4 6 1 22 11 35 18 22 21 23 46 10 15 -8 27 -21 27 -29 0 -8 4 -15 9 -15 5 0 13 -10 16 -22 4 -11 18 -31 32 -44 24 -22 24 -24 8 -48 -10 -14 -23 -26 -31 -26 -27 0 -60 22 -76 51 -10 17 -25 29 -38 29 -11 0 -20 5 -20 11 0 5 -4 7 -10 4 -12 -8 -60 24 -60 40 0 7 9 15 20 18 12 3 20 14 20 26 0 21 -45 40 -100 42 -14 0 -19 3 -12 6 6 2 12 11 12 19 0 9 -5 12 -12 9 -7 -4 -4 2 7 12 12 10 24 25 27 34 7 17 53 16 63 -2z"/> <path d="M1053 530 c-13 -5 -23 -13 -23 -16 0 -4 3 -4 7 -1 3 4 15 0 25 -10 17 -15 18 -15 16 10 -1 15 -3 27 -3 26 0 0 -10 -4 -22 -9z"/> <path d="M1566 701 c-24 -27 -17 -56 14 -56 48 0 64 29 34 59 -20 21 -27 20 -48 -3z m39 -11 c-3 -5 0 -10 7 -10 9 0 9 -3 -2 -10 -18 -12 -21 -12 -39 -1 -18 11 -5 31 20 31 11 0 17 -4 14 -10z"/> <path d="M2042 708 c-32 -32 9 -96 44 -67 26 22 11 79 -21 79 -6 0 -16 -5 -23 -12z"/> <path d="M1477 692 c-22 -24 -23 -66 -1 -58 8 3 12 2 9 -4 -11 -18 21 -11 38 8 22 24 21 41 0 58 -24 18 -27 17 -46 -4z"/> <path d="M1956 691 c-19 -21 -22 -48 -3 -34 15 12 47 13 47 1 0 -4 -9 -8 -19 -8 -28 0 -35 -17 -12 -30 17 -9 23 -6 36 14 28 42 -16 93 -49 57z"/> <path d="M2677 693 c-19 -18 4 -100 24 -88 10 7 12 55 3 79 -7 17 -16 20 -27 9z"/> <path d="M1388 676 c-43 -32 -5 -88 39 -59 25 17 30 42 11 61 -15 15 -29 15 -50 -2z m40 -26 c-2 -8 -14 -17 -28 -18 -20 -3 -22 -1 -12 10 6 8 9 18 6 21 -4 3 3 5 15 4 14 -1 21 -7 19 -17z"/> <path d="M1872 678 c-32 -32 9 -96 44 -67 26 22 11 79 -21 79 -6 0 -16 -5 -23 -12z"/> <path d="M2342 678 c-17 -17 -15 -49 5 -63 14 -10 21 -10 39 2 24 16 23 39 -4 61 -20 15 -25 15 -40 0z"/> <path d="M2420 664 c0 -29 16 -64 30 -64 13 0 13 46 0 71 -15 27 -30 24 -30 -7z"/> <path d="M1295 660 c-38 -41 4 -92 46 -54 26 23 24 49 -5 62 -20 9 -27 7 -41 -8z"/> <path d="M1793 665 c-19 -21 -16 -34 6 -28 10 3 22 0 25 -6 4 -6 2 -11 -4 -11 -6 0 -8 -5 -4 -11 4 -8 0 -8 -15 0 -25 14 -28 3 -3 -15 14 -10 20 -10 35 3 22 21 22 46 -1 66 -22 20 -23 20 -39 2z"/> <path d="M2259 664 c-20 -20 -13 -61 12 -69 23 -8 52 18 47 41 -2 9 -12 23 -23 30 -18 12 -23 12 -36 -2z"/> <path d="M2653 612 c0 -76 4 -86 26 -72 11 6 10 18 -4 66 -9 33 -18 64 -20 69 -2 6 -3 -23 -2 -63z"/> <path d="M2731 667 c-7 -10 -7 -24 0 -51 10 -35 12 -37 26 -23 11 10 13 24 8 46 -8 37 -19 46 -34 28z"/> <path d="M2189 663 c-1 -5 -1 -11 0 -15 0 -5 -4 -7 -11 -5 -21 4 -20 -31 2 -53 22 -22 23 -22 41 -4 22 22 17 54 -12 72 -10 7 -20 9 -20 5z"/> <path d="M2476 662 c-8 -13 13 -82 25 -82 17 0 22 29 9 60 -12 30 -24 37 -34 22z"/> <path d="M1700 645 c-12 -14 -11 -18 1 -26 10 -6 11 -9 1 -9 -10 0 -10 -3 0 -14 7 -8 17 -11 22 -8 5 3 6 0 2 -6 -11 -19 9 -14 27 6 13 15 14 22 4 42 -15 30 -39 36 -57 15z"/> <path d="M2787 654 c-19 -19 3 -101 24 -89 5 4 9 19 9 34 0 30 -21 66 -33 55z"/> <path d="M1617 632 c-23 -25 -21 -49 4 -62 16 -9 25 -8 40 6 24 21 24 36 1 57 -23 21 -25 21 -45 -1z m39 -25 c-1 -21 -32 -32 -42 -16 -3 5 0 9 5 9 6 0 10 3 10 8 -2 14 1 19 15 19 7 0 13 -9 12 -20z"/> <path d="M2088 625 c-10 -21 -9 -29 5 -43 16 -15 17 -15 17 6 0 12 -6 22 -12 23 -7 0 -4 4 7 8 29 12 35 4 20 -26 -18 -34 -11 -42 14 -19 21 19 18 43 -7 64 -23 18 -31 15 -44 -13z"/> <path d="M2537 644 c-11 -12 -8 -49 6 -68 11 -15 15 -16 25 -4 21 25 -9 94 -31 72z"/> <path d="M1524 619 c-13 -15 -14 -19 -3 -19 11 0 11 -2 -1 -10 -11 -7 -11 -10 -2 -10 7 0 10 -5 7 -10 -7 -12 20 -24 34 -16 6 4 2 15 -9 26 -24 24 -26 42 -4 33 8 -3 13 -11 10 -18 -3 -8 1 -16 9 -18 33 -13 34 36 1 51 -20 9 -27 7 -42 -9z"/> <path d="M2011 621 c-15 -27 -14 -40 5 -58 12 -12 20 -14 33 -6 23 15 20 53 -6 70 -19 13 -23 13 -32 -6z"/> <path d="M2835 630 c-3 -5 -1 -28 5 -51 9 -33 14 -38 25 -29 8 6 12 17 10 23 -2 7 -6 24 -9 40 -6 27 -20 35 -31 17z"/> <path d="M1442 609 c-18 -7 -22 -15 -19 -36 3 -24 8 -28 34 -26 19 1 30 -3 30 -12 0 -8 -4 -12 -9 -9 -4 3 -8 -6 -8 -20 0 -30 30 -42 59 -24 28 17 27 55 -1 64 -13 5 -26 7 -31 6 -4 -1 -5 9 -1 22 7 30 -20 48 -54 35z m24 -14 c-3 -8 -1 -15 4 -15 6 0 10 -5 10 -11 0 -6 -8 -9 -17 -7 -20 4 -25 29 -8 40 15 11 18 10 11 -7z"/> <path d="M1925 600 c-17 -18 -17 -21 -1 -45 17 -26 41 -35 33 -12 -2 6 -9 11 -15 10 -5 -1 -13 4 -16 12 -4 11 2 15 19 15 17 0 25 -6 25 -17 0 -12 3 -14 11 -6 8 8 6 18 -6 37 -21 31 -27 32 -50 6z"/> <path d="M2392 608 c-14 -14 -16 -44 -3 -52 5 -4 12 8 16 25 8 35 4 44 -13 27z"/> <path d="M1341 586 c-26 -28 -27 -42 -1 -56 28 -15 60 4 60 35 0 38 -32 49 -59 21z m40 0 c13 8 11 -20 -3 -34 -15 -15 -48 -16 -48 -1 0 6 7 8 16 5 9 -3 12 -2 9 5 -4 5 -4 18 0 27 5 12 9 13 12 4 3 -6 9 -10 14 -6z"/> <path d="M2709 610 c-12 -54 0 -108 22 -95 14 9 11 59 -6 81 -8 10 -15 17 -16 14z"/> <path d="M2947 603 c-9 -8 -9 -56 -1 -77 11 -29 24 -17 24 22 0 39 -12 67 -23 55z"/> <path d="M1842 588 c-17 -17 -15 -43 5 -59 14 -12 16 -12 8 0 -5 10 -4 12 4 7 6 -4 9 -12 6 -17 -7 -10 8 -13 18 -3 12 12 -5 32 -24 29 -13 -3 -19 0 -16 8 2 7 16 11 31 9 14 -1 26 1 26 6 0 12 -22 32 -35 32 -6 0 -16 -5 -23 -12z"/> <path d="M2304 576 c-7 -31 2 -47 23 -39 12 5 14 3 8 -8 -5 -8 0 -6 12 4 12 10 20 24 19 30 -6 42 -52 51 -62 13z"/> <path d="M2420 568 c0 -21 5 -38 10 -38 13 0 13 40 0 60 -7 11 -10 5 -10 -22z"/> <path d="M2455 591 c-9 -16 15 -83 28 -78 7 3 10 11 9 18 -2 8 -6 23 -8 33 -5 27 -20 40 -29 27z"/> <path d="M1 578 c-1 -18 55 -48 87 -48 9 0 34 -9 56 -19 23 -10 55 -22 71 -27 41 -10 44 -11 50 -14 13 -7 31 -5 43 3 9 7 11 6 6 -7 -4 -12 0 -16 15 -16 12 0 21 -5 21 -11 0 -6 6 -9 14 -6 7 3 19 0 25 -6 6 -6 11 -7 11 -3 0 5 7 3 15 -4 9 -7 18 -10 22 -7 3 4 19 -3 34 -14 16 -11 33 -18 38 -15 5 3 14 -1 21 -9 7 -8 19 -15 26 -15 7 0 39 -11 70 -25 31 -14 60 -22 65 -19 5 3 9 1 9 -4 0 -10 95 -53 122 -55 9 -1 19 -6 22 -13 2 -6 17 -14 33 -17 15 -3 36 -9 46 -12 16 -7 17 4 17 143 0 137 -7 181 -25 152 -3 -5 -1 -10 5 -10 7 0 7 -7 -2 -22 -7 -13 -11 -27 -9 -33 7 -22 6 -75 -1 -75 -4 0 -5 -13 -2 -30 4 -20 2 -30 -5 -30 -8 0 -9 -5 -1 -19 13 -26 13 -51 -2 -51 -6 0 -8 3 -5 7 9 8 -12 33 -27 33 -6 0 -4 -5 4 -11 12 -8 11 -9 -5 -6 -11 2 -19 9 -18 15 2 7 -2 12 -8 12 -6 0 -8 9 -4 23 4 15 3 18 -3 9 -13 -19 -82 -20 -96 -1 -6 8 -23 14 -38 14 -16 -1 -28 4 -28 11 0 7 -9 11 -20 9 -11 -2 -20 0 -20 6 0 5 -9 9 -19 9 -11 0 -23 5 -26 10 -3 6 -17 10 -30 10 -13 0 -26 4 -29 8 -3 5 9 7 27 6 l32 -3 -30 8 c-18 4 -36 3 -44 -3 -11 -8 -13 -8 -7 2 6 11 -11 17 -36 13 -5 0 -8 4 -8 10 0 6 -9 9 -20 6 -11 -3 -18 -2 -15 3 6 9 -29 20 -66 20 -15 0 -30 7 -33 16 -4 10 -12 14 -22 10 -8 -3 -25 0 -37 6 -12 7 -26 11 -30 10 -5 -1 -6 2 -2 8 4 6 -6 10 -25 10 -22 0 -29 4 -24 13 6 9 4 9 -8 -1 -13 -10 -18 -10 -30 2 -13 12 -54 25 -95 28 -7 1 -13 8 -13 16 0 11 -3 12 -14 3 -11 -9 -15 -9 -19 1 -4 8 -6 7 -6 -4z"/> <path d="M1267 583 c-3 -3 3 -15 14 -26 19 -20 19 -22 3 -34 -10 -7 -13 -13 -8 -13 6 0 15 5 22 12 16 16 16 42 0 32 -7 -5 -9 -2 -5 9 6 15 -15 31 -26 20z"/> <path d="M1755 570 c-17 -18 -17 -21 -1 -45 9 -14 22 -25 29 -25 19 0 37 21 37 42 0 21 -16 24 -27 4 -5 -9 -15 -11 -28 -5 -11 4 -14 8 -7 8 7 1 10 6 7 11 -6 9 8 14 28 11 5 -1 6 3 2 9 -9 15 -20 12 -40 -10z"/> <path d="M2226 572 c-15 -18 -15 -21 5 -46 20 -26 22 -26 40 -10 23 21 24 38 3 58 -20 20 -27 20 -48 -2z"/> <path d="M2762 578 c-14 -14 -16 -48 -3 -48 5 0 8 -8 7 -17 0 -10 6 -18 14 -18 11 0 14 9 12 35 -5 49 -14 64 -30 48z"/> <path d="M2990 551 c0 -26 -5 -41 -15 -45 -11 -4 -14 -13 -9 -33 11 -53 16 -64 22 -59 7 8 14 176 7 176 -3 0 -5 -18 -5 -39z"/> <path d="M1667 562 c-19 -20 -23 -37 -7 -27 6 3 7 -1 4 -9 -4 -11 0 -16 10 -16 9 0 16 -5 16 -10 0 -7 7 -7 21 0 23 13 23 48 -1 67 -20 17 -24 16 -43 -5z"/> <path d="M2146 561 c-12 -13 -14 -21 -6 -26 5 -3 8 -11 5 -16 -4 -5 -1 -9 4 -9 6 0 11 5 11 11 0 5 4 8 10 4 5 -3 6 -13 3 -21 -5 -14 -3 -15 15 -5 25 13 31 47 7 38 -8 -4 -17 -2 -20 3 -4 6 1 10 11 10 13 0 14 3 4 15 -16 20 -23 19 -44 -4z"/> <path d="M2511 567 c-8 -11 -9 -17 -1 -22 6 -3 8 -10 5 -15 -8 -13 6 -40 21 -40 17 0 18 37 0 68 -11 20 -14 21 -25 9z"/> <path d="M1578 550 c-25 -23 -22 -49 5 -59 16 -7 25 -5 34 6 6 8 14 10 17 5 3 -5 0 -15 -8 -21 -14 -12 -11 -51 4 -51 5 0 15 -3 24 -6 14 -6 14 -3 1 22 -20 39 -19 43 8 37 20 -4 19 -2 -5 11 -17 11 -25 22 -21 34 7 28 -37 44 -59 22z"/> <path d="M2066 551 c-20 -22 -11 -58 10 -41 7 7 10 18 7 26 -4 10 0 12 11 8 20 -8 20 -18 0 -38 -8 -9 -12 -20 -9 -26 9 -15 19 -12 33 11 27 42 -20 96 -52 60z"/> <path d="M2567 553 c-10 -9 -9 -38 3 -69 9 -24 13 -26 25 -13 12 11 13 22 4 52 -10 36 -18 44 -32 30z"/> <path d="M2605 550 c4 -6 10 -8 14 -6 4 3 6 -8 3 -23 -4 -32 14 -75 29 -66 14 9 11 58 -7 83 -15 21 -52 33 -39 12z"/> <path d="M2817 554 c-19 -19 -3 -84 20 -84 12 0 13 -3 4 -14 -7 -9 -8 -17 -2 -20 5 -3 7 -14 5 -24 -5 -22 11 -47 25 -38 13 8 15 56 3 56 -5 0 -9 6 -10 13 -7 68 -30 125 -45 111z"/> <path d="M1895 533 c3 -13 2 -23 -3 -23 -17 0 -1 -40 20 -51 22 -12 48 3 48 27 0 16 -30 45 -44 43 -5 0 -13 5 -18 13 -6 9 -7 6 -3 -9z m44 -37 c9 -11 8 -15 -5 -20 -18 -7 -37 11 -28 26 8 12 20 10 33 -6z"/> <path d="M1982 538 c-17 -17 -15 -43 5 -59 15 -13 16 -11 11 14 -6 31 1 40 22 27 12 -8 13 -13 3 -30 -19 -29 -16 -36 6 -16 21 19 18 43 -8 63 -20 16 -24 16 -39 1z"/> <path d="M1392 525 c-12 -9 -22 -25 -22 -37 0 -17 2 -18 15 -8 9 7 13 20 10 28 -4 12 -3 13 10 2 18 -15 20 -31 4 -27 -6 1 -14 -4 -16 -10 -6 -16 21 -17 45 -2 12 8 17 20 14 35 -5 25 -21 33 -23 12 0 -7 -4 -5 -7 5 -7 16 -9 16 -30 2z"/> <path d="M2362 528 c-16 -16 -15 -33 4 -52 25 -25 33 -19 32 24 0 41 -13 51 -36 28z"/> <path d="M2864 525 c-3 -8 1 -36 9 -62 8 -27 19 -61 24 -77 10 -38 33 -46 33 -12 0 33 -18 79 -29 72 -4 -3 -6 6 -3 19 9 50 -19 100 -34 60z"/> <path d="M2434 516 c-9 -22 19 -77 34 -67 11 7 11 15 -2 45 -16 39 -24 44 -32 22z"/> <path d="M2674 515 c-8 -19 15 -87 27 -80 10 7 12 55 3 79 -8 20 -23 21 -30 1z"/> <path d="M2922 518 c-9 -12 -9 -26 4 -69 9 -30 19 -58 22 -64 4 -5 7 -14 8 -20 0 -5 2 -15 2 -21 1 -7 8 -14 15 -17 17 -6 18 16 5 65 -8 27 -15 35 -27 30 -13 -5 -14 -3 -4 9 10 13 10 25 0 59 -10 36 -14 40 -25 28z"/> <path d="M1302 508 c-19 -19 -14 -26 14 -20 26 5 26 5 9 -22 -19 -28 -11 -34 18 -12 21 16 22 52 1 60 -22 8 -28 8 -42 -6z"/> <path d="M1816 505 c-26 -19 -13 -58 17 -50 16 5 18 4 8 -3 -8 -6 -9 -12 -3 -16 14 -8 45 30 39 48 -10 25 -40 36 -61 21z"/> <path d="M2287 514 c-14 -14 -6 -24 18 -22 14 1 24 7 22 13 -4 12 -30 18 -40 9z"/> <path d="M0 499 c0 -13 26 -40 37 -38 14 3 73 -13 73 -20 0 -4 10 -8 23 -9 23 -3 55 -8 72 -11 6 -2 1 -7 -10 -12 -17 -8 -15 -9 9 -5 17 2 36 -2 44 -11 8 -8 20 -12 27 -9 8 3 16 -2 19 -10 3 -8 9 -13 13 -12 9 2 74 -12 86 -19 4 -3 2 -12 -5 -21 -9 -13 -7 -12 9 1 25 21 43 15 43 -14 0 -10 4 -19 10 -19 5 0 7 7 4 15 -7 18 0 19 29 4 12 -7 30 -13 42 -14 37 -4 38 -5 31 -13 -4 -4 -17 -8 -29 -8 -62 -4 -63 -4 -48 -13 9 -6 22 -6 33 0 10 5 18 6 18 1 0 -4 10 -9 22 -9 18 -2 20 0 8 7 -8 5 -10 10 -5 11 6 0 20 2 33 3 26 3 27 2 6 -18 -14 -15 -14 -16 0 -16 9 0 16 5 16 12 0 9 3 9 11 1 6 -6 18 -9 25 -6 8 3 14 0 14 -6 0 -6 7 -11 16 -11 8 0 13 -4 10 -9 -6 -8 39 -21 77 -22 9 0 17 -8 17 -17 0 -10 3 -13 8 -7 4 6 13 11 20 13 16 3 16 -25 0 -31 -8 -3 -7 -6 4 -6 9 -1 20 4 23 9 5 8 11 7 21 -1 10 -8 14 -8 14 0 0 6 3 10 8 10 23 -4 52 2 52 12 0 6 -10 9 -22 8 -27 -4 -116 20 -124 32 -3 5 -14 9 -24 9 -10 0 -52 15 -92 34 -40 19 -95 42 -123 51 -27 10 -70 26 -94 37 -24 11 -51 21 -61 23 -10 2 -46 15 -81 29 -54 21 -298 106 -306 106 -2 0 -3 -5 -3 -11z"/> <path d="M1727 495 c-16 -11 -14 -13 14 -19 43 -8 51 -8 44 4 -13 21 -40 28 -58 15z"/> <path d="M2206 494 c-18 -12 -18 -15 -2 -39 19 -29 38 -32 56 -10 10 12 10 19 2 27 -9 9 -12 9 -12 0 0 -7 -4 -12 -9 -12 -5 0 -7 8 -4 19 6 25 -8 32 -31 15z"/> <path d="M2730 471 c0 -42 14 -61 32 -43 14 14 -2 74 -20 80 -8 2 -12 -9 -12 -37z"/> <path d="M2126 481 c-16 -17 -15 -20 10 -50 26 -31 27 -32 41 -11 8 11 11 29 8 41 -7 21 -26 21 -33 -1 -3 -7 0 -10 6 -6 6 4 8 -2 5 -14 -3 -12 -8 -19 -10 -16 -3 2 -4 6 -2 8 1 2 -3 14 -10 27 -7 13 -8 21 -3 17 6 -3 13 -2 16 3 12 19 -12 20 -28 2z"/> <path d="M2484 483 c15 -55 18 -63 26 -63 15 0 17 14 8 48 -5 18 -15 32 -24 32 -10 0 -14 -6 -10 -17z"/> <path d="M1537 472 c-24 -27 -21 -49 8 -56 51 -13 77 29 37 62 -21 16 -26 15 -45 -6z"/> <path d="M2270 479 c0 -8 35 -39 44 -39 4 0 4 5 0 12 -4 6 -3 8 3 5 6 -4 16 0 23 8 7 8 11 15 9 16 -15 4 -79 3 -79 -2z"/> <path d="M2544 479 c-5 -8 -7 -22 -6 -32 2 -10 -2 -25 -8 -33 -10 -11 -10 -21 0 -44 13 -32 36 -42 27 -12 -10 31 -17 67 -11 55 3 -7 12 -13 20 -13 18 0 18 37 0 69 -10 19 -15 21 -22 10z"/> <path d="M2787 484 c-19 -19 3 -101 24 -89 5 4 9 19 9 34 0 30 -21 66 -33 55z"/> <path d="M2040 465 c-9 -11 -7 -19 12 -39 21 -22 25 -23 47 -12 l24 14 -26 26 c-30 30 -40 32 -57 11z"/> <path d="M1444 456 c-3 -9 -10 -13 -15 -10 -11 6 -12 -17 -1 -32 14 -21 41 -23 64 -4 19 15 21 22 12 37 -14 24 -52 29 -60 9z"/> <path d="M1664 459 c-8 -14 11 -33 25 -25 16 10 13 36 -3 36 -8 0 -18 -5 -22 -11z"/> <path d="M1716 462 c-4 -6 2 -16 13 -21 26 -14 33 -14 57 3 18 14 17 14 -16 12 -19 -2 -38 1 -41 7 -4 5 -9 5 -13 -1z"/> <path d="M1960 455 c-17 -20 -5 -45 22 -45 20 -1 18 -4 -12 -19 -19 -9 -34 -23 -32 -29 3 -16 -9 -15 -35 3 -23 16 -78 11 -67 -6 3 -5 10 -6 16 -3 7 4 8 2 4 -4 -5 -8 20 -11 84 -11 49 1 90 4 90 8 0 4 -12 13 -27 20 l-27 12 24 12 c32 17 35 32 9 56 -27 25 -33 26 -49 6z"/> <path d="M2594 455 c-3 -8 0 -30 6 -50 10 -29 14 -34 26 -24 17 14 18 30 2 64 -13 28 -26 32 -34 10z"/> <path d="M1358 446 c-20 -15 -14 -28 8 -19 11 4 14 -1 10 -21 -4 -23 -3 -25 15 -15 20 10 24 51 5 49 -5 -1 -12 3 -15 8 -4 7 -12 6 -23 -2z"/> <path d="M2339 444 c-13 -16 -12 -19 33 -44 25 -15 37 29 12 47 -23 17 -29 16 -45 -3z"/> <path d="M2417 423 c5 -28 3 -34 -7 -28 -8 5 -11 4 -7 -3 10 -14 47 -3 47 15 0 20 -19 53 -30 53 -5 0 -6 -16 -3 -37z"/> <path d="M2655 448 c-8 -21 7 -70 23 -76 16 -5 15 37 -3 68 -12 22 -14 23 -20 8z"/> <path d="M1872 438 c-15 -15 -15 -28 -1 -28 6 0 18 -9 28 -21 16 -21 16 -21 35 -1 17 20 17 21 -3 41 -24 24 -42 26 -59 9z"/> <path d="M1805 430 c3 -5 0 -7 -8 -4 -8 3 -18 0 -22 -6 -9 -14 13 -40 32 -40 13 0 13 3 2 18 -12 15 -11 14 8 -1 12 -11 26 -16 32 -13 15 9 1 38 -15 32 -8 -3 -14 1 -14 9 0 8 -5 15 -11 15 -5 0 -7 -4 -4 -10z"/> <path d="M2261 426 c-8 -10 -8 -16 2 -25 8 -6 17 -8 20 -4 4 3 7 1 7 -5 0 -15 20 -15 40 -2 13 9 11 13 -10 30 -30 23 -44 25 -59 6z"/> <path d="M2460 417 c0 -31 22 -60 42 -56 14 4 15 8 1 42 -17 41 -43 50 -43 14z"/> <path d="M2707 434 c-9 -9 -9 -47 -1 -68 10 -27 34 -19 34 12 0 31 -21 67 -33 56z"/> <path d="M1687 419 c-13 -8 -15 -14 -7 -30 15 -26 33 -24 26 4 -3 12 -3 17 0 10 3 -7 13 -9 22 -6 15 6 15 5 3 -10 -11 -14 -11 -17 0 -17 8 0 20 4 28 9 11 7 9 13 -8 30 -23 23 -37 25 -64 10z"/> <path d="M2189 414 c-12 -14 -9 -20 16 -40 35 -28 44 -29 52 -8 3 8 -4 25 -17 40 -28 28 -33 29 -51 8z"/> <path d="M1590 407 c-22 -17 -13 -44 15 -49 21 -4 23 -3 14 13 -7 15 -6 19 6 19 8 0 15 7 15 15 0 18 -29 19 -50 2z"/> <path d="M2763 413 c-25 -9 -12 -83 13 -83 9 0 14 11 14 33 0 38 -10 56 -27 50z"/> <path d="M1497 395 c-10 -7 -17 -22 -15 -32 3 -14 11 -17 38 -15 42 4 53 13 44 35 -8 23 -21 21 -29 -4 -5 -15 -10 -18 -18 -10 -7 7 -6 15 3 26 15 19 1 19 -23 0z"/> <path d="M2030 395 c-15 -18 -15 -17 26 -38 27 -14 34 -14 43 -3 11 13 5 19 -45 49 -7 4 -17 0 -24 -8z"/> <path d="M2102 401 c-10 -6 -5 -13 20 -28 27 -16 36 -17 45 -7 9 9 9 15 0 22 -20 16 -51 22 -65 13z"/> <path d="M1394 378 c-5 -8 -2 -9 10 -5 14 6 17 3 12 -8 -4 -13 -2 -14 14 -5 16 9 20 8 20 -5 0 -8 5 -15 10 -15 14 0 13 23 -2 38 -15 15 -55 16 -64 0z"/> <path d="M2334 376 c-3 -7 -15 -11 -28 -9 -12 3 -28 -2 -35 -10 -10 -13 -7 -14 21 -11 18 2 42 4 52 5 20 0 38 -20 30 -33 -3 -4 1 -8 8 -8 16 0 20 70 4 71 -6 0 -19 2 -29 4 -10 2 -20 -2 -23 -9z"/> <path d="M2573 355 c3 -20 2 -33 -3 -30 -5 3 -7 -7 -6 -22 2 -15 9 -29 16 -31 9 -3 11 3 6 22 -5 22 -3 26 14 26 24 0 24 3 5 40 -22 42 -39 39 -32 -5z"/> <path d="M2810 361 c0 -41 9 -61 26 -54 17 6 19 54 2 71 -19 19 -28 14 -28 -17z"/> <path d="M2435 352 c3 -47 16 -60 44 -43 11 7 10 14 -5 40 -23 39 -41 40 -39 3z"/> <path d="M2632 368 c-7 -9 -6 -23 4 -47 13 -31 16 -33 29 -20 12 12 13 21 4 47 -12 34 -21 39 -37 20z"/> <path d="M1751 361 c-24 -16 -1 -31 47 -31 l47 1 -24 19 c-25 21 -48 25 -70 11z"/> <path d="M2865 360 c-11 -17 15 -80 33 -81 11 0 12 -2 5 -6 -22 -8 4 -83 28 -83 15 0 10 39 -8 73 -9 18 -16 36 -15 41 4 13 -19 66 -29 66 -4 0 -11 -5 -14 -10z"/> <path d="M1653 353 c-15 -6 -17 -29 -4 -38 6 -3 28 -2 51 1 34 6 38 9 28 21 -6 8 -20 12 -30 10 -10 -3 -16 -1 -12 4 6 10 -13 11 -33 2z"/> <path d="M2115 350 c-3 -5 4 -14 16 -20 11 -7 19 -14 16 -17 -3 -2 -13 0 -24 6 -38 21 -81 29 -92 18 -5 -5 -50 -11 -98 -12 -119 -2 -123 -3 -117 -18 3 -9 22 -13 54 -13 36 1 49 5 45 14 -3 9 0 10 15 2 13 -7 33 -7 61 -1 22 5 53 7 67 5 15 -2 41 -6 59 -9 18 -3 34 -1 38 5 4 6 14 9 22 6 24 -10 3 13 -27 29 -17 9 -31 11 -35 5z"/> <path d="M2170 351 c0 -12 26 -21 58 -21 l27 1 -25 14 c-28 16 -60 19 -60 6z"/> <path d="M2693 318 c7 -27 13 -36 15 -25 5 24 -6 67 -17 67 -5 0 -4 -19 2 -42z"/> <path d="M1575 341 c3 -5 -2 -12 -11 -15 -8 -3 -12 -2 -9 4 3 6 2 10 -4 10 -15 0 -21 -14 -12 -29 6 -9 21 -11 55 -6 41 7 46 10 34 21 -16 16 -62 28 -53 15z"/> <path d="M2490 344 c0 -18 24 -45 36 -40 8 3 14 1 14 -4 0 -6 -5 -10 -11 -10 -5 0 -7 -4 -4 -10 21 -33 34 14 15 51 -10 17 -50 28 -50 13z"/> <path d="M2925 338 c-9 -24 1 -48 20 -48 19 0 19 20 1 46 -14 18 -15 18 -21 2z"/> <path d="M1481 332 c-1 -7 -5 -11 -10 -7 -5 3 -13 1 -16 -5 -4 -6 -3 -10 2 -9 4 1 17 1 28 0 17 -1 18 -3 5 -12 -11 -8 -9 -9 10 -3 32 8 34 10 25 24 -4 6 -13 9 -20 6 -8 -3 -16 0 -19 7 -3 9 -5 8 -5 -1z"/> <path d="M2718 301 c-3 -30 0 -38 12 -36 8 2 18 4 23 4 9 1 9 33 1 55 -12 30 -32 17 -36 -23z"/> <path d="M274 309 c-4 -7 -3 -10 3 -6 9 6 66 -11 90 -26 9 -6 11 -3 7 7 -3 9 -11 16 -18 17 -17 1 -39 6 -57 14 -10 3 -20 1 -25 -6z"/> <path d="M2346 313 c-3 -4 -25 -8 -49 -10 -23 -2 -76 -7 -117 -13 -82 -10 -189 -19 -292 -25 -37 -2 -71 -6 -75 -8 -4 -3 -37 -8 -72 -11 -35 -4 -68 -9 -72 -12 -4 -2 -35 -5 -68 -5 -34 -1 -64 -5 -67 -10 -5 -8 9 -13 29 -10 4 0 7 -4 7 -10 0 -8 4 -8 14 0 7 6 52 13 98 15 47 1 90 6 97 10 6 4 20 4 31 1 11 -4 20 -3 20 2 0 5 11 10 26 11 18 1 23 -2 18 -11 -6 -9 -5 -9 7 0 8 7 24 12 34 13 76 1 125 5 125 10 0 3 29 6 65 8 35 2 74 5 86 7 12 3 71 7 131 11 96 6 108 5 108 -10 0 -9 5 -16 11 -16 5 0 7 5 4 10 -4 6 10 3 29 -7 28 -13 33 -19 25 -30 -16 -18 -4 -16 15 3 9 8 16 11 16 5 0 -6 9 -11 21 -11 11 0 18 -4 15 -8 -2 -4 9 -9 27 -10 17 -2 37 -8 44 -14 7 -6 13 -7 13 -2 0 5 5 1 11 -10 9 -15 13 -16 20 -5 7 11 9 10 9 -3 0 -12 8 -18 25 -18 14 0 25 -4 25 -9 0 -5 9 -7 20 -4 12 3 20 0 20 -6 0 -7 5 -9 12 -5 8 5 9 1 4 -12 -6 -15 -5 -16 5 -7 8 8 18 9 31 2 10 -5 18 -7 18 -3 0 3 6 1 13 -5 8 -6 17 -8 20 -4 4 3 7 0 7 -7 0 -7 3 -10 6 -7 4 3 16 1 27 -4 11 -6 33 -15 48 -19 23 -7 29 -5 29 6 0 8 -8 17 -17 20 -10 3 -27 10 -38 14 -11 5 -74 30 -140 55 -248 96 -281 109 -338 131 -44 18 -64 21 -83 14 -15 -6 -23 -6 -19 -1 6 11 -9 23 -19 14z"/> <path d="M2774 307 c-3 -9 -4 -26 -2 -39 2 -17 8 -22 23 -20 28 5 30 9 19 39 -11 31 -32 41 -40 20z"/> <path d="M1720 301 c0 -6 5 -13 11 -16 15 -10 81 4 74 16 -8 12 -85 12 -85 0z"/> <path d="M2614 303 c-15 -5 -7 -40 10 -46 7 -3 18 -2 24 2 14 8 -18 50 -34 44z"/> <path d="M1605 291 c3 -6 -9 -8 -29 -4 -42 7 -69 -6 -56 -27 8 -13 15 -13 53 2 30 11 49 13 61 6 19 -11 76 7 76 23 0 5 -25 9 -56 9 -32 0 -53 -4 -49 -9z"/> <path d="M2834 285 c-11 -27 5 -65 26 -65 22 0 27 29 10 61 -13 23 -28 25 -36 4z"/> <path d="M2660 280 c0 -9 47 -60 55 -60 3 0 -3 16 -12 35 -15 32 -43 48 -43 25z"/> <path d="M1092 258 c2 -14 11 -24 23 -25 19 -3 19 -3 1 5 -19 8 -19 9 -1 16 16 6 17 9 5 16 -24 15 -32 12 -28 -12z"/> <path d="M2953 225 c28 -77 54 -65 32 15 -5 19 -4 22 4 10 9 -13 11 -13 11 3 0 20 -4 21 -30 7 -16 -8 -18 -8 -14 5 4 9 0 15 -9 15 -12 0 -11 -9 6 -55z"/> <path d="M2737 239 c-3 -12 -3 -18 0 -15 10 10 32 -15 26 -30 -3 -8 0 -14 7 -14 6 0 8 5 4 12 -5 8 -2 9 9 5 22 -8 21 -2 -5 33 -26 35 -34 37 -41 9z"/> <path d="M2802 231 c-10 -6 -9 -11 2 -21 9 -7 13 -17 9 -23 -3 -6 -1 -7 5 -3 7 4 12 2 12 -3 0 -6 7 -11 15 -11 14 0 14 3 0 29 -18 36 -27 42 -43 32z"/> <path d="M1116 208 c7 -11 72 -10 79 2 4 6 -12 9 -39 8 -24 -1 -42 -6 -40 -10z"/> <path d="M2870 170 c22 -42 37 -50 47 -24 9 25 -17 64 -44 64 l-23 0 20 -40z"/> <path d="M2930 176 c0 -24 23 -56 40 -56 20 0 20 1 5 30 -9 17 -22 30 -30 30 -8 0 -15 -2 -15 -4z"/> <path d="M896 144 c-17 -12 -22 -25 -8 -22 4 1 34 -2 67 -7 33 -5 63 -8 67 -7 4 1 5 -5 1 -13 -4 -13 2 -15 37 -9 32 5 41 4 36 -5 -4 -6 -4 -11 1 -10 21 4 34 -2 27 -13 -4 -6 -3 -8 3 -5 6 4 30 0 54 -9 24 -9 53 -16 64 -16 11 1 22 -4 26 -10 4 -6 33 -13 66 -15 l58 -3 -70 26 c-151 56 -235 85 -256 89 -12 2 -32 11 -44 19 -30 20 -108 26 -129 10z"/> </g> </svg> 